<?xml version="1.0" encoding="UTF-8"?><svg id="a" xmlns="http://www.w3.org/2000/svg" width="256.39579" height="102.803061" viewBox="0 0 256.39579 102.803061"><path d="M41.554292,102.803061c22.949504,0,41.554289-18.604606,41.554289-41.554291s-18.604785-41.554291-41.554289-41.554291S0,38.299085,0,61.24877s18.604788,41.554291,41.554292,41.554291" fill="#bcd631"/><path d="M55.557498,48.302853c-1.510786-1.909173-3.537235-3.470837-6.104361-4.670322-2.558501-1.189137-5.23945-1.785001-8.057514-1.785863-4.653934,0-8.615431,1.491816-11.939672,4.468539-2.154937,1.923837-3.885612,4.763454-5.143736,8.593017h34.484152c-.808852-2.745627-1.8971-4.939366-3.238869-6.60537M62.757864,66.839273c2.227371,0,4.03307,1.805698,4.03307,4.029619,0,.889915-.420811,1.691872-.773503,2.378276-3.224211,6.063832-7.67119,10.617739-14.148073,13.140024-3.03019,1.147747-6.437215,1.712566-10.19779,1.712566-8.356739,0-14.997461-2.745625-19.794544-8.307586-4.722059-5.511948-7.104648-11.765487-7.104648-18.727852,0-6.538968,2.008341-12.384631,6.021575-17.502495,5.109245-6.533797,11.976754-9.806305,20.509409-9.808883,8.774958,0,15.840804,3.347521,21.104405,10.033082,3.758851,4.748796,5.643017,10.64792,5.705103,17.633571.002586.526015-.452719.98908-.980458.98908H23.364526c.297498,5.128212,2.050594,9.314776,5.229104,12.627807,3.382879,3.500153,7.535811,5.240315,12.526915,5.240315,2.416217,0,4.760004-.424262,7.033941-1.266747,5.572306-2.045421,8.098041-5.216172,11.094599-10.22366.736424-1.126189,2.021278-1.947117,3.508778-1.947117" fill="#fff"/><path d="M196.671591,42.54201c4.750689,5.260231,7.132215,11.502763,7.132215,18.680898,0,7.224832-2.529199,13.56004-7.554156,18.965138-5.031347,5.413458-11.5202,8.108125-19.382959,8.109081-7.892616,0-14.413058-2.696578-19.474262-8.109081-4.994682-5.405098-7.508295-11.742098-7.508295-18.965138,0-7.149711,2.381107-13.374806,7.131797-18.634082,5.23545-5.805901,11.876515-8.7153,19.85076-8.7153,7.943015,0,14.568494,2.896501,19.8049,8.668484h0ZM163.861098,47.737153c-3.640899,3.755909-5.455617,8.278669-5.455617,13.623337,0,6.647872,3.354271,13.120662,9.181788,16.481382,2.810333,1.594969,5.895353,2.39299,9.279421,2.39299,3.382695,0,6.467236-.798022,9.280317-2.39299,5.827517-3.362511,9.18131-9.831599,9.18131-16.481382,0-5.341801-1.829825-9.864681-5.500044-13.622501-3.644542-3.761403-7.950838-5.61792-12.961583-5.61792-5.044185,0-9.363797,1.857353-13.005592,5.617084h0Z" fill="#999"/><path d="M98.50841,61.052245c0,10.862626,8.415833,19.218326,18.250179,19.218326,9.834824,0,18.250238-8.355701,18.250238-19.218326,0-10.863462-8.415415-19.217371-18.250238-19.217371-9.834346,0-18.250179,8.353909-18.250179,19.217371h0ZM90.47451,59.734231c-.019706-.169708-.02932-.342999-.02932-.517245V4.308983c0-2.304971,1.744971-4.308983,4.057287-4.308983,2.311839,0,4.057287,2.004011,4.057287,4.308983v37.03707c4.72131-4.68793,11.131698-7.57619,18.198824-7.57619,14.567599,0,26.31525,12.249311,26.31525,27.282383,0,15.032236-11.747651,27.281547-26.31525,27.281547s-26.314772-12.249311-26.314772-27.281547c0-.442005.010092-.881383.030693-1.318014h0Z" fill="#999"/><path d="M207.483639,81.197934l17.94068-21.349888-16.15988-19.189902c-.697105-.726484-1.109372-1.696005-1.109372-2.714134,0-2.433357,2.228358-4.174148,4.66906-4.174148,1.633544,0,3.119415.754789,3.963297,1.9646l14.315366,17.343537,14.49009-17.555403c.864006-1.092413,2.260007-1.752734,3.803681-1.752734,2.440702,0,4.668582,1.740791,4.668582,4.174148,0,.943844-.354046,1.806954-.918107,2.488414l-16.308927,19.410965,18.10573,21.288501c.872306.741054,1.451953,1.809701,1.451953,3.027753,0,2.434193-2.22788,4.174148-4.668582,4.174148-1.50056,0-2.870884-.63739-3.738592-1.670209l-16.879855-20.056715-16.305762,19.670602c-.831462,1.263913-2.352623,2.056321-4.027012,2.056321-2.440702,0-4.668582-1.739955-4.668582-4.174148,0-1.181387.546207-2.224238,1.376235-2.961709h0Z" fill="#999"/></svg>