<svg xmlns="http://www.w3.org/2000/svg" viewBox="192 192 896 896">
<path fill-rule="nonzero" fill="rgb(4.464722%, 19.949341%, 36.880493%)" fill-opacity="1" d="M 611.09375 192 L 611.453125 192 C 613.402344 199.089844 615.53125 205.992188 616.875 213.683594 C 612.203125 215.496094 612.070312 210.628906 610.011719 207.539062 C 604.671875 199.535156 595.941406 200.386719 584.351562 202.84375 C 586.640625 220.007812 590.09375 240.613281 593.023438 259.21875 C 593.804688 264.171875 594.03125 274.019531 598.445312 275.84375 C 601.414062 277.070312 605.277344 275.464844 607.839844 276.203125 C 608.621094 276.511719 607.707031 278.511719 608.5625 278.734375 C 595.527344 281.71875 581.136719 283.351562 567.363281 285.601562 C 567.359375 284.640625 567.5 283.535156 567.003906 283.070312 C 569.128906 280.679688 574.1875 281.628906 576.398438 279.097656 C 579.738281 275.277344 576.328125 264.597656 575.316406 258.136719 C 572.675781 241.28125 569.492188 219.789062 567.003906 205.734375 C 552.777344 206.203125 542.605469 210.730469 542.429688 225.25 C 541.75 225.777344 540.035156 225.261719 539.539062 225.972656 C 537.691406 219.867188 538.632812 210.976562 537.367188 204.289062 C 561.132812 199.382812 586.960938 196.539062 611.09375 192 "/>
<path fill-rule="nonzero" fill="rgb(4.464722%, 19.949341%, 36.880493%)" fill-opacity="1" d="M 639.644531 192.722656 C 663.261719 193.921875 686.652344 195.34375 710.476562 196.335938 C 710.394531 201.453125 710.921875 210.261719 709.753906 215.492188 C 705.007812 215.8125 705.601562 211.175781 704.332031 208.984375 C 699.125 199.988281 681.695312 201.511719 667.832031 201.035156 C 664.699219 208.988281 666.398438 221.765625 664.941406 231.394531 C 673.859375 231.273438 688.125 235.621094 694.214844 230.308594 C 695.683594 229.027344 696.082031 226.984375 696.746094 225.609375 C 697.347656 224.355469 697.214844 221.507812 700.71875 222.359375 C 701.292969 230.308594 700.367188 243.472656 699.273438 252.714844 C 694.804688 252.765625 695.628906 247.894531 694.574219 245.847656 C 690.410156 237.738281 677.722656 239.097656 664.941406 238.257812 C 664.171875 243.246094 664.207031 248.695312 663.855469 254.523438 C 663.554688 259.578125 661.933594 266.753906 663.496094 270.785156 C 665.292969 275.417969 677.886719 275.558594 684.457031 275.484375 C 697.308594 275.332031 703.507812 271.144531 708.671875 263.917969 C 710.070312 261.957031 710.371094 259.058594 714.453125 259.21875 C 714.675781 262.367188 713.089844 266.625 711.921875 270.421875 C 710.710938 274.367188 709.011719 278.191406 708.308594 281.988281 C 686.777344 280.753906 664.808594 279.777344 642.894531 278.734375 C 640.230469 278.609375 636.882812 278.910156 634.585938 277.289062 C 635.367188 277.351562 634.75 276.007812 634.945312 275.484375 C 636.226562 274.226562 641.613281 274.933594 643.621094 273.3125 C 646.371094 271.089844 646.167969 261.832031 646.511719 255.96875 C 647.292969 242.671875 647.660156 231.105469 648.316406 217.296875 C 648.582031 211.738281 650.15625 202.472656 647.957031 199.226562 C 646.304688 196.792969 641.828125 196.550781 638.921875 195.976562 C 639.25 194.980469 639.03125 193.4375 639.644531 192.722656 "/>
<path fill-rule="nonzero" fill="rgb(4.464722%, 19.949341%, 36.880493%)" fill-opacity="1" d="M 785.648438 266.449219 C 787.621094 272.878906 789.851562 280 792.152344 287.046875 C 795.367188 296.882812 797.046875 307.996094 805.164062 312.34375 C 804.964844 312.988281 804.976562 313.84375 804.441406 314.152344 C 800.878906 314.785156 796.726562 312.300781 792.875 310.898438 C 788.855469 309.4375 784.761719 308.242188 781.308594 306.5625 C 776.960938 291.277344 771.660156 276.941406 767.21875 261.75 C 765.808594 260.75 763.636719 260.511719 762.15625 259.582031 C 760.261719 263.253906 758.765625 268.40625 756.738281 274.035156 C 754.933594 279.039062 751.269531 284.777344 752.398438 289.578125 C 753.371094 293.703125 758.527344 293.570312 761.433594 296.445312 C 760.917969 296.890625 760.75 297.6875 760.710938 298.613281 C 754.136719 297.347656 747.550781 294.550781 740.835938 292.105469 C 734.335938 289.742188 727.492188 287.578125 721.679688 284.515625 C 722.527344 284.398438 722.03125 282.941406 722.765625 282.710938 C 724.464844 281.351562 728.039062 284.421875 732.160156 283.433594 C 736.382812 282.421875 738.445312 273.472656 740.472656 267.894531 C 744.773438 256.074219 749.019531 244.480469 753.121094 233.199219 C 754.957031 228.15625 760.035156 219.027344 758.542969 214.046875 C 757.488281 210.523438 752.140625 209.195312 749.871094 207.902344 C 750.238281 207.046875 750.765625 204.484375 751.316406 205.011719 C 768.570312 213.054688 799.640625 217.695312 811.304688 232.835938 C 812.957031 234.976562 814.84375 239.460938 814.921875 243.320312 C 815.214844 258.050781 803.917969 268.046875 785.648438 266.449219 M 797.574219 237.175781 C 796.445312 227.980469 785.976562 220.148438 776.253906 221.632812 C 771.300781 231.984375 767.925781 243.90625 763.601562 254.882812 C 781.265625 262.996094 799.6875 254.421875 797.574219 237.175781 "/>
<path fill-rule="nonzero" fill="rgb(4.464722%, 19.949341%, 36.880493%)" fill-opacity="1" d="M 549.296875 283.070312 C 549.796875 283.65625 549.601562 284.933594 550.378906 285.238281 C 545.414062 288.675781 538.960938 290.457031 533.03125 292.828125 C 527.121094 295.195312 521.523438 298.308594 515.683594 299.335938 C 512.578125 295.214844 520.527344 295.707031 521.46875 291.746094 C 523.121094 284.773438 512.777344 280.226562 510.625 275.84375 C 500.90625 279.375 491.921875 283.640625 482.074219 287.046875 C 482.394531 294.4375 481.171875 303.371094 485.6875 306.5625 C 489.84375 307.664062 494.234375 303.332031 494.363281 307.648438 C 494.421875 309.640625 485.339844 312.101562 482.074219 313.429688 C 476.523438 315.6875 472.394531 318.066406 469.066406 318.125 C 467.441406 313.917969 472.328125 313.144531 473.761719 310.175781 C 474.164062 309.34375 474.703125 307.832031 474.847656 306.921875 C 476.5 296.5625 474.617188 283.410156 475.207031 270.421875 C 475.96875 253.652344 474.625 236.316406 475.207031 221.996094 C 475.871094 222.050781 478.082031 220.144531 478.820312 220.550781 C 484.699219 223.769531 490.070312 231.246094 495.085938 236.453125 C 505.578125 247.347656 515.625 257.714844 526.527344 268.617188 C 532.761719 274.851562 539.390625 286.292969 549.296875 283.070312 M 482.074219 280.179688 C 490.078125 277.460938 497.242188 273.90625 505.203125 271.144531 C 498.660156 262.355469 489.492188 253.324219 481.714844 245.125 C 481.691406 244.90625 481.660156 244.699219 481.351562 244.765625 C 481.765625 256.398438 482.050781 268.160156 482.074219 280.179688 "/>
<path fill-rule="nonzero" fill="rgb(4.464722%, 19.949341%, 36.880493%)" fill-opacity="1" d="M 420.277344 248.738281 C 414.238281 257.1875 420.367188 269.183594 423.53125 278.734375 C 429.65625 297.246094 437.792969 319.160156 443.40625 337.28125 C 442.667969 338.832031 440.894531 339.347656 439.792969 340.535156 C 423.375 331.53125 407.890625 321.597656 391.726562 312.34375 C 397.007812 329.953125 402.296875 347.550781 407.628906 365.109375 C 407.097656 366.988281 404.722656 367.023438 404.011719 368.722656 C 386.085938 357.46875 367.011719 345.707031 347.996094 333.667969 C 340.996094 329.234375 332.507812 320.929688 323.058594 324.269531 C 323.125 323 321.839844 323.082031 321.617188 322.101562 C 328.304688 315.984375 334.808594 311.449219 342.9375 305.117188 C 344.863281 303.617188 348.882812 299.25 349.804688 302.949219 C 350.289062 304.898438 345.757812 307.605469 345.828125 310.175781 C 345.945312 314.464844 353.402344 317.5 356.671875 319.574219 C 369.507812 327.710938 381.046875 335.304688 393.894531 343.0625 C 391.789062 334.320312 388.628906 325.339844 385.945312 316.320312 C 385.0625 313.359375 384.777344 309.542969 383.414062 307.648438 C 381.925781 305.574219 377.277344 303.566406 374.378906 301.863281 C 370.625 299.660156 366.71875 296.234375 361.730469 296.804688 C 358.242188 297.203125 355.816406 301.414062 353.417969 297.527344 C 360.21875 290.929688 368.523438 285.144531 376.1875 279.097656 C 378.585938 277.203125 380.964844 274.429688 384.136719 274.035156 C 387.304688 278.046875 379.703125 278.511719 379.800781 283.433594 C 379.890625 288.011719 386.773438 290.910156 390.640625 293.191406 C 403.335938 300.675781 417.636719 309.585938 429.3125 315.957031 C 423.15625 301.328125 419.09375 280.773438 412.6875 266.808594 C 411.792969 264.859375 410.164062 262.160156 408.351562 261.75 C 404.46875 260.871094 399.246094 267.128906 397.871094 263.554688 C 397.097656 261.550781 404.4375 257.164062 406.90625 255.246094 C 411.921875 251.335938 414.195312 249.128906 418.109375 246.570312 C 419.238281 246.886719 419.292969 248.277344 420.277344 248.738281 "/>
<path fill-rule="nonzero" fill="rgb(4.464722%, 19.949341%, 36.880493%)" fill-opacity="1" d="M 916.472656 286.324219 C 913.453125 291.976562 909.890625 297.089844 906.714844 302.585938 C 905.605469 302.128906 904.8125 301.355469 903.824219 300.78125 C 907.976562 287.386719 897.835938 282.003906 889.367188 276.566406 C 886.269531 274.574219 879.972656 268.835938 876.71875 269.339844 C 874.101562 269.746094 869.214844 278.917969 867.683594 281.265625 C 864.511719 286.128906 862.410156 289.980469 859.375 293.914062 C 865.84375 297.171875 877.101562 309.566406 886.476562 306.921875 C 889.714844 306.011719 891.625 300.949219 894.789062 304.03125 C 894.933594 306.066406 892.894531 308.082031 891.535156 310.175781 C 887.597656 316.257812 883.109375 323.453125 878.886719 329.332031 C 877.527344 329.246094 877.359375 327.96875 875.996094 327.886719 C 883.789062 311.472656 863.992188 306.582031 856.121094 299.695312 C 853.15625 303.273438 850.15625 308.445312 846.722656 313.789062 C 843.542969 318.742188 837.070312 324.871094 838.050781 330.777344 C 838.859375 335.640625 848.117188 336.839844 844.195312 340.894531 C 833.0625 334.558594 820.402344 326.621094 809.859375 318.488281 C 810.589844 318.011719 811.082031 317.300781 811.308594 316.320312 C 813.46875 316.6875 815.902344 319.992188 820.339844 319.210938 C 824.625 318.460938 829.324219 309.085938 831.90625 305.117188 C 838.894531 294.367188 845.164062 284.652344 852.144531 274.035156 C 856.785156 266.980469 866.523438 255.066406 854.675781 250.546875 C 855.132812 249.4375 855.90625 248.644531 856.480469 247.65625 C 876.703125 260.320312 896.359375 273.550781 916.472656 286.324219 "/>
<path fill-rule="nonzero" fill="rgb(4.464722%, 19.949341%, 36.880493%)" fill-opacity="1" d="M 941.046875 373.78125 C 940.371094 380.539062 939.261719 388.042969 938.15625 395.828125 C 937.109375 403.199219 934.636719 411.597656 935.628906 417.871094 C 936.144531 421.144531 940.253906 422.800781 937.433594 425.460938 C 935.132812 425.570312 933.953125 423.171875 932.738281 421.847656 C 931.425781 420.425781 929.988281 419.101562 928.398438 417.511719 C 926.132812 415.246094 920.734375 410.976562 920.085938 408.113281 C 919.445312 405.28125 921.050781 399.589844 921.53125 396.1875 C 922.667969 388.183594 923.609375 382.015625 924.785156 373.421875 C 925.277344 369.832031 927.074219 365.023438 926.59375 362.21875 C 926.332031 360.707031 923.351562 357.535156 922.976562 357.519531 C 921.921875 357.476562 912.585938 367.1875 911.414062 368.363281 C 908.070312 371.703125 901.773438 376.054688 901.292969 380.285156 C 900.5625 386.746094 908.355469 387.003906 904.90625 391.851562 C 901.640625 391.054688 899.777344 387.445312 897.320312 384.984375 C 891.132812 378.800781 884.707031 372.421875 878.527344 365.832031 C 877.6875 364.9375 875.269531 363.4375 876.359375 361.855469 C 879.535156 358.652344 881.464844 365.957031 886.835938 365.832031 C 892.003906 365.710938 897.820312 357.742188 901.292969 354.265625 C 910.417969 345.144531 918.542969 337.589844 928.039062 328.96875 C 931.601562 325.734375 939.679688 319.042969 939.964844 314.875 C 940.285156 310.132812 935.933594 308.34375 934.902344 305.476562 C 935.78125 304.90625 936.503906 304.1875 937.074219 303.308594 C 937.378906 303.242188 937.414062 303.449219 937.433594 303.671875 C 944.5625 311.285156 952.804688 319.117188 961.285156 328.246094 C 968.453125 335.960938 979.273438 345.460938 979.355469 358.605469 C 979.472656 376.539062 955.792969 385.007812 941.046875 373.78125 M 951.527344 365.472656 C 958.847656 363.878906 965.574219 356.238281 965.625 348.125 C 965.664062 341.449219 959.875 330.332031 953.699219 329.691406 C 951.128906 329.425781 948.023438 333.074219 945.382812 335.472656 C 938.914062 341.367188 932.132812 348.675781 926.953125 354.265625 C 933.320312 359.800781 941.242188 367.707031 951.527344 365.472656 "/>
<path fill-rule="nonzero" fill="rgb(4.464722%, 19.949341%, 36.880493%)" fill-opacity="1" d="M 502.675781 394.742188 C 499.011719 407.949219 485.960938 411.761719 474.484375 417.148438 C 471.113281 421.5625 469.46875 430.214844 470.148438 437.75 C 470.320312 439.648438 471.550781 441.097656 471.234375 442.808594 C 469.421875 452.613281 450.507812 452.628906 455.691406 438.109375 C 448.589844 431.121094 436.855469 428.757812 426.78125 424.738281 C 416.132812 424.515625 403.335938 434.039062 393.53125 426.910156 C 394.027344 424.125 397.183594 422.363281 399.675781 420.765625 C 402.136719 419.183594 405.011719 417.746094 407.628906 416.066406 C 412.394531 413.003906 418.582031 407.5625 424.253906 407.03125 C 430.847656 406.414062 439.527344 413.65625 444.488281 417.148438 C 450.910156 421.667969 455.5 426.558594 461.113281 430.882812 C 461.492188 420.179688 461.3125 408.914062 465.8125 402.332031 C 470.617188 400.410156 476.683594 399.382812 482.796875 397.996094 C 488.769531 396.640625 495.109375 393.710938 499.785156 393.660156 C 500.976562 393.644531 501.648438 394 502.675781 394.742188 "/>
<path fill-rule="nonzero" fill="rgb(4.464722%, 19.949341%, 36.880493%)" fill-opacity="1" d="M 997.425781 408.476562 C 1009.042969 407.40625 1019.382812 410.972656 1025.613281 415.703125 C 1034.34375 422.328125 1042.066406 434.644531 1043.324219 447.507812 C 1044.300781 457.53125 1041.226562 466.066406 1037.902344 471.722656 C 1027.457031 489.480469 994.019531 505.421875 971.042969 487.984375 C 957.175781 477.457031 946.300781 451.613281 958.757812 431.605469 C 965.523438 420.738281 979.789062 410.097656 997.425781 408.476562 M 997.789062 425.460938 C 984.453125 430.246094 961.191406 441.546875 960.925781 459.070312 C 960.773438 469.121094 967.257812 477.367188 975.019531 480.03125 C 988.4375 484.644531 1003.601562 476.425781 1012.242188 471.722656 C 1021.566406 466.644531 1033.933594 458.996094 1035.375 446.785156 C 1036.703125 435.46875 1029.671875 426.554688 1022 423.65625 C 1017.957031 422.125 1013.0625 422.421875 1008.628906 422.933594 C 1004.449219 423.414062 1001.113281 424.269531 997.789062 425.460938 "/>
<path fill-rule="nonzero" fill="rgb(4.464722%, 19.949341%, 36.880493%)" fill-opacity="1" d="M 349.082031 420.039062 C 347.222656 425.644531 343.527344 430.914062 340.40625 436.304688 C 337.230469 441.796875 334.109375 447.261719 331.011719 452.566406 C 329.875 452.257812 329.488281 451.199219 328.121094 451.121094 C 329.070312 448.183594 331.152344 445.894531 330.289062 442.808594 C 328.800781 437.488281 317.398438 438.828125 312.21875 437.027344 C 306.382812 445.285156 302.039062 455.035156 296.316406 463.410156 C 300.164062 466.617188 304.28125 476.742188 310.410156 476.417969 C 314.414062 476.207031 314.039062 472.574219 317.277344 470.996094 C 317.609375 471.632812 318.542969 471.660156 319.085938 472.082031 C 315.738281 479.820312 310.445312 488.734375 305.351562 495.933594 C 301.582031 494.441406 304.511719 489.5 303.90625 486.175781 C 303.429688 483.550781 300.035156 479.710938 297.765625 476.78125 C 282.292969 456.808594 266.03125 435.621094 250.78125 416.425781 C 251.574219 415.054688 252.136719 413.445312 253.3125 412.453125 C 272.296875 415.320312 296.582031 418.382812 317.277344 421.125 C 324.710938 422.109375 332.023438 424.292969 338.601562 424.015625 C 339.691406 423.96875 341.328125 423.648438 342.214844 423.292969 C 344.980469 422.191406 345.613281 417.667969 349.082031 420.039062 M 292.34375 457.988281 C 296.265625 450.464844 301.070312 443.824219 304.628906 435.941406 C 292.929688 434.390625 280.449219 431.695312 269.574219 430.519531 C 277.414062 439.425781 284.625 448.960938 292.34375 457.988281 "/>
<path fill-rule="nonzero" fill="rgb(4.464722%, 19.949341%, 36.880493%)" fill-opacity="1" d="M 1066.089844 497.742188 C 1068.777344 504.570312 1069.71875 513.148438 1071.871094 520.507812 C 1056.601562 541.253906 1041.1875 561.863281 1026.339844 583.03125 C 1037.171875 580.585938 1052.179688 576.921875 1064.644531 573.996094 C 1073.101562 572.011719 1079.285156 569.9375 1077.65625 559.179688 C 1081.242188 557.15625 1081.578125 562.324219 1082.351562 565.683594 C 1083.964844 572.679688 1086.40625 582.714844 1087.050781 588.089844 C 1083.832031 590.550781 1083.554688 586.578125 1081.992188 584.113281 C 1077.191406 576.546875 1066.683594 581.082031 1056.695312 583.390625 C 1038.203125 587.667969 1016.449219 592.671875 999.234375 596.402344 C 997.109375 591.679688 1001.953125 587.578125 1005.015625 583.390625 C 1020.152344 562.699219 1036.148438 540.613281 1050.910156 520.507812 C 1038.917969 523.394531 1023.402344 526.742188 1009.351562 529.90625 C 999.9375 532.023438 991.289062 533.621094 992.726562 545.808594 C 991.621094 545.546875 991.664062 546.429688 990.558594 546.167969 C 987.367188 537.554688 984.964844 526.226562 983.691406 516.894531 C 984.15625 516.394531 985.398438 516.675781 985.863281 516.171875 C 988.472656 519.5625 989.332031 524.265625 993.8125 525.207031 C 998.5625 526.207031 1005.121094 523.890625 1010.4375 522.679688 C 1025.46875 519.246094 1042.980469 514.679688 1057.054688 511.835938 C 1060.941406 509.097656 1062.933594 504.464844 1063.5625 498.464844 C 1064.042969 497.863281 1065.609375 498.34375 1066.089844 497.742188 "/>
<path fill-rule="nonzero" fill="rgb(4.464722%, 19.949341%, 36.880493%)" fill-opacity="1" d="M 252.589844 501.355469 C 252.730469 517.515625 266.261719 523.316406 273.910156 533.15625 C 281.3125 529.691406 292.65625 524.542969 289.8125 511.835938 C 289.222656 509.199219 287.265625 507.402344 287.28125 504.96875 C 290.914062 502.082031 294.679688 509.792969 295.957031 512.917969 C 301.691406 526.929688 293.339844 543.242188 283.308594 547.976562 C 291.789062 567.46875 284.890625 595.722656 263.070312 594.234375 C 246.789062 593.125 241.683594 577.949219 237.773438 563.515625 C 226.613281 565.691406 214.558594 562.742188 208.5 557.011719 C 198.527344 547.582031 201.261719 524.027344 215.726562 521.59375 C 230.96875 519.027344 236.347656 531.78125 238.132812 545.445312 C 249.480469 543.421875 259.679688 540.246094 268.851562 536.050781 C 265.207031 532.027344 258.78125 521.792969 250.78125 523.398438 C 247.070312 524.144531 247.007812 528.238281 244.640625 530.988281 C 244.542969 530.238281 243.050781 530.890625 242.832031 530.265625 C 242.300781 525.382812 245.449219 515.828125 247.167969 508.945312 C 248.207031 504.777344 248.070312 498.882812 252.589844 501.355469 M 209.945312 533.15625 C 208.421875 534.957031 206.878906 538.414062 208.136719 542.191406 C 210.609375 549.609375 224.136719 548.734375 232.710938 546.890625 C 233.195312 536.714844 217.632812 524.066406 209.945312 533.15625 M 243.554688 562.070312 C 245.746094 568.292969 248.496094 573.632812 254.035156 575.804688 C 269.011719 581.667969 283.980469 567.273438 278.246094 550.867188 C 278.226562 550.644531 278.195312 550.4375 277.886719 550.503906 C 267.734375 555.652344 255.933594 559.152344 243.554688 562.070312 "/>
<path fill-rule="nonzero" fill="rgb(4.464722%, 19.949341%, 36.880493%)" fill-opacity="1" d="M 281.140625 650.25 C 280.886719 652.308594 281.75 653.25 281.5 655.308594 C 259.519531 665.414062 234.15625 677.4375 210.667969 688.195312 C 204.507812 691.019531 199.921875 692.703125 199.101562 700.121094 L 196.570312 700.121094 C 195.183594 689.039062 194.011719 673.558594 194.765625 662.539062 L 196.933594 662.539062 C 198.320312 665.488281 197.675781 670.46875 200.910156 671.574219 C 212.570312 670.808594 221.0625 665.171875 229.820312 661.089844 C 238.65625 656.976562 247.175781 652.757812 256.5625 648.804688 C 245.605469 644.636719 229.027344 638.816406 215.726562 634.347656 C 211.070312 632.785156 204.117188 629.898438 200.1875 631.457031 C 196.636719 632.867188 197.554688 637.734375 195.488281 640.855469 L 193.679688 640.855469 C 191.71875 633.175781 191.847656 621.484375 191.875 613.027344 C 195.472656 611.828125 195.832031 616.074219 197.296875 618.085938 C 201.832031 624.316406 212.023438 626.949219 221.148438 630.011719 C 240.011719 636.34375 263.277344 644.371094 281.140625 650.25 "/>
<path fill-rule="nonzero" fill="rgb(4.464722%, 19.949341%, 36.880493%)" fill-opacity="1" d="M 1066.453125 617.003906 C 1073.921875 617.480469 1080.757812 618.597656 1088.136719 619.171875 C 1087.988281 644.320312 1087.066406 668.695312 1087.050781 693.980469 C 1079.953125 694.949219 1072.179688 695.25 1064.644531 695.785156 C 1063.445312 690.660156 1069.679688 691.148438 1073.320312 689.28125 C 1080.527344 685.574219 1081.601562 678.082031 1080.90625 665.066406 C 1070.835938 665.273438 1058.894531 664.707031 1046.574219 664.707031 C 1034.550781 664.707031 1022.167969 662.882812 1012.605469 663.984375 C 1005.652344 664.785156 1005.707031 670.160156 1004.292969 675.910156 C 1000.023438 677.492188 1001.761719 670.15625 1001.761719 666.511719 C 1001.761719 656.085938 1002.035156 642.84375 1002.484375 634.710938 L 1005.015625 634.710938 C 1006.914062 637.363281 1004.945312 641.996094 1007.542969 644.828125 C 1011.222656 648.828125 1032.957031 647.285156 1040.070312 647.359375 C 1056.285156 647.527344 1067.71875 647.628906 1080.90625 648.082031 C 1083.769531 632.570312 1078.792969 621.765625 1066.089844 620.617188 C 1066.316406 619.515625 1065.628906 617.503906 1066.453125 617.003906 "/>
<path fill-rule="nonzero" fill="rgb(4.464722%, 19.949341%, 36.880493%)" fill-opacity="1" d="M 435.09375 618.808594 C 434.398438 621.085938 432.277344 622.574219 430.757812 624.230469 C 429.191406 625.933594 427.726562 627.992188 425.699219 629.652344 C 418.171875 635.804688 404.378906 632.492188 398.953125 640.855469 C 399.019531 645.859375 398.347656 650.125 397.148438 653.863281 C 394.695312 654.148438 391.847656 654.851562 389.917969 654.585938 C 388.863281 652.289062 387.210938 649.414062 388.113281 646.273438 C 385.242188 641.675781 381.523438 637.925781 377.632812 634.347656 C 370.210938 633.21875 361.460938 633.414062 357.03125 629.289062 C 355.992188 626.835938 355.023438 624.3125 353.417969 622.421875 C 364.046875 623.765625 377.488281 618.785156 384.136719 624.953125 C 385.753906 626.453125 386.988281 628.402344 388.835938 630.734375 C 389.4375 631.496094 392.816406 636.488281 393.171875 636.515625 C 395.296875 636.679688 398.476562 628.1875 400.398438 626.757812 C 402.707031 625.046875 408.757812 623.953125 414.855469 623.144531 C 422.453125 622.140625 427.980469 620.601562 434.371094 618.808594 Z M 435.09375 618.808594 "/>
<path fill-rule="nonzero" fill="rgb(4.464722%, 19.949341%, 36.880493%)" fill-opacity="1" d="M 406.542969 703.015625 C 401.449219 701.617188 395.976562 694.53125 390.28125 699.039062 C 385.351562 702.9375 380.484375 710.726562 377.269531 715.664062 C 382.316406 722.210938 378.546875 727.902344 371.128906 729.035156 C 368.324219 726.957031 369.414062 722.863281 368.597656 720.359375 C 367.164062 715.972656 361.320312 712.089844 357.753906 711.6875 C 349.949219 710.804688 340.757812 721.496094 334.265625 715.300781 C 337.671875 711.027344 344.085938 707.171875 348.359375 703.738281 C 349.886719 702.507812 351.664062 700.078125 353.417969 699.761719 C 360.4375 698.488281 366.375 709.214844 371.128906 711.324219 C 373.941406 701.003906 384.664062 685.230469 393.535156 682.414062 C 394.246094 682.1875 396.835938 683.382812 397.871094 684.222656 C 400.070312 686 401.808594 689.621094 403.652344 692.894531 C 405.433594 696.0625 408.195312 699.820312 406.542969 703.015625 "/>
<path fill-rule="nonzero" fill="rgb(4.464722%, 19.949341%, 36.880493%)" fill-opacity="1" d="M 247.890625 752.886719 C 257.078125 751.414062 265.011719 757.949219 265.238281 766.980469 C 265.753906 787.421875 235.128906 786.21875 235.242188 767.34375 C 235.289062 759.507812 240.234375 754.117188 247.890625 752.886719 "/>
<path fill-rule="nonzero" fill="rgb(4.464722%, 19.949341%, 36.880493%)" fill-opacity="1" d="M 1027.785156 753.972656 C 1034.480469 753.113281 1041.457031 756.929688 1043.683594 763.007812 C 1051.601562 784.585938 1016.839844 791.125 1014.773438 770.234375 C 1013.875 761.179688 1019.78125 754.992188 1027.785156 753.972656 "/>
<path fill-rule="nonzero" fill="rgb(4.464722%, 19.949341%, 36.880493%)" fill-opacity="1" d="M 966.707031 813.601562 C 958.542969 826.84375 973.925781 832.703125 982.246094 838.539062 C 997.105469 848.953125 1014.695312 861.570312 1028.867188 871.0625 C 1028.683594 872.925781 1026.972656 873.261719 1026.699219 875.039062 C 996.992188 877.855469 967.625 881.015625 938.15625 884.074219 C 947.871094 891.066406 960.429688 899.636719 971.40625 907.203125 C 975.96875 910.351562 980.457031 916.234375 987.304688 915.515625 C 990.519531 915.175781 994.285156 909.726562 996.339844 910.457031 C 996.597656 910.546875 996.960938 911.511719 997.789062 911.539062 C 995.898438 915.820312 992.457031 919.96875 989.476562 924.1875 C 986.4375 928.484375 983.898438 933.265625 980.078125 936.476562 C 979.601562 935.746094 978.890625 935.253906 977.910156 935.03125 C 985.578125 924.328125 975.074219 918.925781 968.152344 914.070312 C 954.632812 904.578125 939.515625 893.574219 926.953125 885.15625 C 918.671875 883.03125 915.628906 891.34375 910.691406 888.046875 C 914.734375 881.128906 919.59375 875.027344 924.0625 868.535156 C 949.507812 865.910156 975.167969 863.5 1000.316406 860.582031 C 993.34375 854.949219 981.585938 846.753906 972.488281 840.34375 C 968.253906 837.359375 961.566406 831.132812 955.503906 833.476562 C 952.085938 834.800781 950.4375 839.75 947.191406 836.730469 C 947.023438 834.574219 949.144531 832.828125 950.445312 830.949219 C 954.640625 824.886719 959.476562 817.835938 963.816406 811.792969 C 964.121094 811.726562 964.15625 811.933594 964.179688 812.15625 C 965.363281 812.292969 965.773438 813.210938 966.707031 813.601562 "/>
<path fill-rule="nonzero" fill="rgb(4.464722%, 19.949341%, 36.880493%)" fill-opacity="1" d="M 354.140625 871.425781 C 357.75 871.789062 361.949219 871.566406 362.816406 874.679688 C 357.945312 879.632812 351.320312 884.511719 345.46875 889.132812 C 343.746094 890.492188 341.8125 893.019531 339.683594 892.386719 C 337.28125 889.300781 340.507812 886.125 341.851562 883.351562 C 344.070312 878.769531 346.25 873.636719 345.46875 866.003906 C 343.910156 850.796875 331.089844 840.578125 314.027344 842.875 C 295.144531 845.414062 273.925781 862.109375 272.828125 879.734375 C 272.25 888.972656 276.78125 897.582031 281.863281 902.867188 C 288.332031 909.59375 297.472656 912.867188 310.410156 912.984375 L 310.410156 917.320312 C 295.148438 919.285156 284.152344 913.832031 276.441406 906.117188 C 265.367188 895.046875 255.132812 874.242188 264.875 854.800781 C 271.953125 840.683594 288.90625 828.582031 306.796875 828.417969 C 321.273438 828.285156 331.273438 834.355469 338.601562 841.789062 C 346.394531 849.699219 349.777344 860.410156 354.140625 871.425781 "/>
<path fill-rule="nonzero" fill="rgb(4.464722%, 19.949341%, 36.880493%)" fill-opacity="1" d="M 889.367188 1016.34375 C 888.488281 1017.875 886.617188 1018.410156 885.394531 1019.597656 C 868.035156 1007.980469 849.980469 994.804688 831.90625 982.011719 C 826.777344 978.382812 818.886719 971.195312 813.113281 970.445312 C 809.871094 970.027344 806.839844 972.546875 805.523438 969 C 814.398438 962.210938 824.484375 954.714844 833.714844 949.484375 C 836.957031 953.460938 830.554688 953.765625 830.460938 958.160156 C 830.371094 962.375 837.296875 966.347656 840.582031 968.640625 C 852.507812 976.964844 866.046875 986.136719 876.71875 993.578125 C 873.988281 981.367188 870.992188 969.425781 868.046875 957.4375 C 860.203125 953.164062 850.890625 941.648438 840.21875 948.039062 C 839.574219 947.359375 839.242188 946.367188 838.410156 945.871094 C 845.84375 939.832031 854.457031 934.644531 862.625 928.886719 C 865.136719 927.117188 867.304688 924.183594 870.574219 924.1875 C 873.566406 927.652344 866.09375 928.695312 865.878906 933.222656 C 865.652344 937.894531 872.328125 941.609375 875.996094 944.066406 C 888.867188 952.683594 902.011719 960.746094 913.582031 968.640625 C 910.167969 956.0625 905.183594 939.722656 901.296875 924.910156 C 900.085938 920.304688 898.800781 913.691406 894.789062 912.984375 C 890.960938 912.3125 888.761719 915.714844 886.117188 915.875 C 885.472656 915.195312 885.136719 914.203125 884.308594 913.707031 C 891.492188 908.484375 898.496094 903.078125 906.355469 898.53125 C 909.394531 901.96875 905.039062 904.257812 904.546875 907.925781 C 903.746094 913.914062 907.632812 923.914062 909.246094 929.609375 C 914.878906 949.507812 921.371094 971.636719 926.59375 990.324219 C 925.820312 991.960938 923.765625 992.316406 922.617188 993.578125 C 906.765625 983.652344 891.730469 972.90625 875.996094 962.859375 C 880.667969 980.472656 884.640625 998.785156 889.367188 1016.34375 "/>
<path fill-rule="nonzero" fill="rgb(4.464722%, 19.949341%, 36.880493%)" fill-opacity="1" d="M 404.738281 914.429688 C 397.8125 932.378906 389.742188 956.039062 382.332031 976.589844 C 380.046875 982.921875 375.308594 990.863281 375.464844 997.550781 C 375.542969 1001.007812 378.425781 1002.140625 378.714844 1004.78125 C 378.078125 1005.105469 377.597656 1005.589844 377.269531 1006.222656 C 367.394531 998.515625 358.214844 990.101562 349.441406 981.289062 C 352.632812 977.226562 354.3125 983.265625 358.476562 983.097656 C 365.121094 982.828125 365.167969 971.761719 368.597656 966.472656 C 361.152344 959.460938 353.429688 952.726562 345.828125 945.871094 C 342.296875 948.507812 331.382812 950.710938 330.289062 955.992188 C 329.226562 961.117188 336.0625 962.097656 332.820312 966.109375 C 325.964844 961.394531 318.347656 954.324219 312.21875 947.679688 C 315.617188 943.765625 318.46875 949.8125 324.867188 947.679688 C 331.097656 945.601562 337.242188 941.871094 343.660156 938.644531 C 360.992188 929.929688 385.363281 919.5625 400.761719 911.175781 C 402.789062 911.558594 404.027344 912.730469 404.738281 914.429688 M 351.972656 942.980469 C 358.675781 948.203125 364.328125 954.476562 371.125 959.605469 C 375.066406 948.605469 379.261719 937.867188 383.777344 927.441406 C 383.734375 927 383.667969 926.585938 383.050781 926.71875 C 372.914062 932.363281 362.132812 937.359375 351.972656 942.980469 "/>
<path fill-rule="nonzero" fill="rgb(4.464722%, 19.949341%, 36.880493%)" fill-opacity="1" d="M 440.875 1002.25 C 438.503906 1005.652344 436.996094 1010.378906 434.371094 1015.261719 C 430.800781 1021.902344 425.167969 1028.898438 432.5625 1034.054688 C 433.890625 1034.976562 437.894531 1035.558594 435.09375 1038.390625 C 432.078125 1038.664062 429.273438 1036.296875 426.421875 1034.773438 C 418.027344 1030.296875 407.625 1026.039062 399.675781 1020.679688 C 400.96875 1015.929688 404.558594 1021.132812 409.433594 1020.320312 C 414.183594 1019.527344 417.066406 1010.445312 419.554688 1005.503906 C 425.304688 994.0625 430.859375 984.105469 436.539062 972.617188 C 438.8125 968.023438 444.597656 960.34375 444.128906 955.269531 C 443.792969 951.621094 439.015625 949.226562 436.898438 948.042969 C 437.5625 947.136719 437.652344 945.660156 438.707031 945.148438 C 439.015625 945.082031 439.046875 945.292969 439.070312 945.511719 C 446.691406 948.777344 454.523438 953.394531 462.558594 957.4375 C 475.300781 963.84375 494.597656 970.121094 495.085938 988.15625 C 495.335938 997.433594 490.542969 1004.847656 485.6875 1008.757812 C 472.539062 1019.335938 452.722656 1008.65625 440.875 1002.25 M 471.957031 997.914062 C 484.09375 986.738281 479.210938 965.957031 462.199219 963.941406 C 458.757812 963.535156 453.863281 976.898438 451.71875 980.925781 C 448.402344 987.160156 445.191406 992.945312 443.40625 997.914062 C 452.933594 1002.855469 464.867188 1004.441406 471.957031 997.914062 "/>
<path fill-rule="nonzero" fill="rgb(4.464722%, 19.949341%, 36.880493%)" fill-opacity="1" d="M 769.023438 979.84375 C 793.25 978.808594 809.464844 998.203125 812.753906 1019.957031 C 817.179688 1049.238281 795.496094 1069.976562 768.664062 1069.832031 C 750.921875 1069.734375 737.265625 1057.167969 731.078125 1043.449219 C 728.484375 1037.699219 726.363281 1028.878906 726.378906 1021.765625 C 726.414062 1004.683594 734.875 992.828125 745.894531 986.347656 C 751.769531 982.894531 760.210938 980.21875 769.023438 979.84375 M 742.640625 1015.984375 C 743.238281 1022.777344 745.328125 1029.695312 748.0625 1036.582031 C 752.199219 1047.007812 758.738281 1058.140625 768.300781 1061.519531 C 777.136719 1064.640625 786.222656 1061.605469 791.433594 1056.097656 C 806.421875 1040.242188 788.882812 1001.003906 778.78125 992.132812 C 774.269531 988.167969 768.6875 986.050781 761.4375 987.070312 C 747.667969 989.007812 741.144531 998.96875 742.640625 1015.984375 "/>
<path fill-rule="nonzero" fill="rgb(4.464722%, 19.949341%, 36.880493%)" fill-opacity="1" d="M 579.289062 998.636719 C 578.105469 1005.039062 577.125 1011.648438 574.953125 1017.066406 C 574.011719 1016.925781 572.972656 1016.882812 572.421875 1016.34375 C 571.976562 1004.210938 562.550781 1001.027344 551.460938 998.273438 C 547.511719 997.292969 539.652344 994.316406 537.007812 995.023438 C 533.671875 995.914062 532.710938 1006.042969 531.949219 1009.117188 C 530.519531 1014.871094 529.257812 1019.394531 527.972656 1024.292969 C 535.300781 1025.515625 549.78125 1033.089844 557.246094 1028.273438 C 559.894531 1026.5625 560.40625 1023.265625 562.667969 1021.765625 C 563.808594 1021.589844 563.941406 1022.417969 565.195312 1022.128906 C 563.078125 1032.292969 560.328125 1041.832031 557.96875 1051.761719 C 557.285156 1051.359375 556.261719 1051.300781 555.4375 1051.039062 C 554.167969 1048.433594 554.761719 1045.21875 553.992188 1043.085938 C 550.589844 1033.671875 535.808594 1034.5 526.527344 1030.800781 C 524.574219 1038.394531 522.433594 1046.398438 520.382812 1054.652344 C 519.695312 1057.425781 518.414062 1060.671875 518.9375 1062.964844 C 520.136719 1068.222656 536.738281 1071.476562 543.511719 1072 C 555.015625 1072.886719 561.289062 1068.308594 566.640625 1062.964844 C 567.671875 1061.9375 568.667969 1059.164062 570.980469 1061.15625 C 572.027344 1062.839844 569.980469 1064.699219 569.171875 1066.214844 C 566.507812 1071.226562 563.515625 1077.070312 560.859375 1082.117188 C 536.839844 1076.386719 513.324219 1070.144531 489.304688 1064.410156 C 489.660156 1063.445312 490.046875 1062.503906 490.027344 1061.15625 C 501.871094 1065.453125 502.375 1055.0625 504.84375 1045.253906 C 507.875 1033.21875 510.878906 1021.027344 513.878906 1009.117188 C 515.203125 1003.847656 519.3125 994.699219 517.492188 989.601562 C 516.375 986.472656 511.480469 985.6875 509.542969 984.542969 C 509.570312 983.367188 509.726562 982.320312 510.265625 981.652344 C 533.484375 987.101562 556.292969 992.960938 579.289062 998.636719 "/>
<path fill-rule="nonzero" fill="rgb(4.464722%, 19.949341%, 36.880493%)" fill-opacity="1" d="M 703.972656 1000.082031 C 704.617188 1007.746094 706.246094 1014.433594 706.863281 1022.125 L 703.609375 1022.125 C 700.917969 1017.816406 700.773438 1013.300781 697.105469 1010.199219 C 692.019531 1005.898438 684.15625 1007.765625 675.421875 1008.03125 C 675.800781 1024.113281 677.46875 1044.449219 678.3125 1062.601562 C 678.609375 1068.972656 677.832031 1076.222656 680.121094 1079.949219 C 682.4375 1083.730469 687.601562 1082.371094 691.324219 1083.203125 L 691.324219 1085.730469 C 679.390625 1087.40625 662.324219 1088.3125 650.125 1087.902344 L 650.125 1085.730469 C 655.117188 1084.070312 661.136719 1084.515625 661.6875 1077.417969 C 662.074219 1072.453125 660.890625 1066.511719 660.605469 1060.433594 C 659.84375 1044.355469 658.957031 1024.09375 658.074219 1009.117188 C 643.691406 1007.621094 632.308594 1012.261719 631.691406 1025.738281 C 630.828125 1025.957031 630.042969 1026.261719 628.800781 1026.101562 C 627.074219 1019.902344 629.210938 1011.34375 628.800781 1004.058594 C 653.773438 1002.644531 678.878906 1001.371094 703.972656 1000.082031 "/>
<path fill-rule="nonzero" fill="rgb(4.464722%, 19.949341%, 36.880493%)" fill-opacity="1" d="M 723.125 296.445312 C 727.058594 300.230469 725.925781 307.539062 726.378906 314.152344 C 726.847656 321.007812 727.605469 328.074219 727.824219 334.390625 C 751.246094 334.667969 775.933594 331.582031 800.464844 330.414062 C 807.222656 330.09375 811.980469 328.667969 811.667969 335.472656 C 811.472656 339.753906 805.613281 344.277344 802.269531 346.316406 C 791.625 352.816406 770.007812 352.414062 755.292969 356.074219 C 746.839844 358.175781 741.105469 362.015625 731.800781 362.941406 C 739.472656 378.878906 749.636719 395.457031 758.183594 411.726562 C 789.429688 410.808594 821.316406 408.613281 851.78125 408.117188 C 856.765625 421.023438 843.214844 423.597656 832.269531 425.460938 C 826.046875 426.519531 819.203125 426.128906 813.835938 427.992188 C 809.101562 429.636719 804.945312 434.292969 799.378906 436.304688 C 791.726562 439.070312 783.664062 438.953125 774.804688 440.28125 C 781.433594 454.972656 790.570312 470.292969 799.019531 484.371094 C 828.65625 484.132812 859.25 484.847656 888.285156 484.007812 C 890.453125 495.183594 892.324219 506.105469 894.789062 517.617188 C 895.472656 520.816406 895.996094 526.074219 897.320312 528.460938 C 898.675781 530.910156 909.320312 536.5 912.136719 537.496094 C 921.324219 540.734375 934.511719 540.207031 942.855469 544.363281 C 946.628906 555.042969 951.152344 564.976562 955.140625 575.441406 L 965.261719 575.441406 L 965.261719 584.835938 C 960.34375 584.101562 955.042969 585.230469 949.359375 584.835938 C 944.820312 573.839844 940.167969 562.949219 935.988281 551.589844 C 926.773438 548.636719 917.167969 548.148438 908.882812 545.085938 C 901.738281 542.441406 896.3125 537.417969 890.089844 534.601562 C 887.71875 520.230469 884.441406 506.765625 881.78125 492.679688 L 804.078125 492.679688 C 810.5 505.175781 818.453125 519.265625 826.125 531.710938 C 834.773438 531.390625 843.867188 531.015625 852.867188 530.628906 C 861.570312 530.253906 870.527344 528.765625 878.164062 530.628906 C 879.636719 542.300781 869.414062 546.105469 859.375 549.78125 C 853.058594 552.09375 845.785156 552.386719 839.496094 553.394531 C 840.582031 556.527344 841.742188 559.582031 843.832031 561.707031 C 859.253906 561.898438 877.582031 558.1875 892.980469 559.539062 C 897.03125 567.679688 885.796875 573.308594 878.886719 576.164062 C 870.980469 579.429688 861.867188 578.710938 854.675781 580.140625 C 862.636719 595.429688 870.476562 610.835938 879.609375 624.953125 C 888.582031 622.96875 897 621.382812 906.714844 618.808594 C 909.617188 618.039062 913.015625 616.238281 915.027344 617.003906 C 918.636719 618.371094 918.015625 624.097656 916.472656 626.757812 C 914.695312 629.824219 911.03125 632.199219 909.246094 633.625 C 903.515625 638.195312 898.070312 641.394531 890.8125 643.382812 C 896.972656 659.308594 906.683594 671.644531 915.75 685.667969 C 922.324219 695.835938 927.652344 706.5625 936.347656 715.664062 C 937.859375 717.242188 943.5625 724.304688 944.300781 724.335938 C 945.683594 724.394531 948.351562 720.050781 949.359375 718.914062 C 951.285156 716.753906 953.261719 714.488281 955.503906 714.578125 C 957.546875 714.660156 959.605469 716.675781 959.839844 718.191406 C 960.265625 720.949219 955.136719 726.824219 952.613281 730.121094 C 933.890625 754.582031 912.320312 782.445312 895.152344 806.375 C 895.757812 809.183594 899.441406 810.699219 899.488281 812.878906 C 898.769531 815.882812 896.664062 817.824219 895.152344 820.46875 C 888.78125 831.585938 885.265625 845.492188 882.5 859.5 C 879.703125 873.6875 874.582031 886.335938 869.492188 897.804688 C 839.273438 905.324219 805.691406 907.035156 771.191406 909.730469 C 737.160156 912.394531 701.710938 914.597656 666.027344 914.792969 C 594.847656 915.175781 519.207031 918.257812 454.609375 908.285156 C 447.503906 889.847656 440.679688 874.675781 426.058594 863.472656 C 423.898438 861.820312 421.324219 860.902344 420.277344 859.136719 C 418.628906 856.367188 418.867188 851.71875 418.109375 848.65625 C 425.800781 846.953125 434.347656 846.105469 442.320312 844.683594 C 444.011719 839.746094 445.40625 834.511719 447.019531 829.503906 C 439.234375 827.5 422.203125 832.589844 421 824.804688 C 420.65625 822.574219 422.058594 821.597656 422.445312 819.382812 C 431.335938 818.757812 440.140625 818.046875 449.550781 817.9375 C 461.429688 780.667969 471.121094 741.210938 481.714844 702.652344 C 476.566406 700.492188 470.722656 699.578125 465.089844 697.230469 C 460.234375 695.207031 456.097656 691.511719 451.355469 689.28125 C 447.132812 687.292969 441.558594 686.085938 435.457031 684.582031 C 431.234375 683.542969 422.800781 681.796875 420.636719 678.800781 C 418.261719 675.511719 419.726562 669.53125 421.359375 666.152344 C 438.625 667.804688 456.511719 671.953125 474.125 674.464844 C 471.914062 666.949219 468.304688 657.328125 465.089844 648.804688 C 463.382812 644.28125 461.644531 635.15625 470.511719 637.601562 C 474.554688 638.71875 478.023438 652.296875 479.546875 656.394531 C 482.359375 663.972656 484.144531 670.015625 487.132812 676.269531 C 490.113281 675.800781 490.148438 672.675781 490.75 670.488281 C 495.136719 654.460938 499.925781 635.582031 504.480469 619.53125 C 496.675781 614.683594 486.957031 612.457031 476.292969 609.050781 C 471.214844 607.429688 466.425781 604.859375 461.476562 603.269531 C 456.851562 601.78125 451.902344 599.929688 446.660156 597.488281 C 439.378906 594.09375 429.945312 589.019531 436.902344 578.332031 C 460.664062 581.796875 483.734375 589.078125 507.371094 593.871094 C 507.429688 589.71875 507.40625 585.648438 507.011719 581.945312 C 495.8125 579.414062 480.554688 580.210938 469.425781 576.527344 C 462 574.070312 454.59375 569.886719 450.273438 564.597656 C 447.449219 561.144531 444.617188 555.328125 446.660156 549.058594 C 451.261719 546.820312 456.515625 549.132812 461.113281 550.144531 C 475.40625 553.285156 490.449219 556.105469 504.84375 559.179688 C 505.875 553.914062 504.257812 546.371094 503.757812 539.300781 C 503.347656 533.496094 500.214844 521.640625 507.734375 522.316406 C 513.316406 522.816406 511.824219 529.457031 512.070312 535.328125 C 512.433594 543.933594 514.234375 554.15625 514.601562 560.984375 C 523.828125 563.683594 534.265625 565.171875 543.875 567.492188 C 550.558594 543.699219 555.878906 518.542969 561.582031 493.765625 C 514.5625 492.640625 467.03125 494.140625 419.554688 493.765625 C 415.890625 511.425781 415.496094 532.351562 413.046875 551.226562 C 401.339844 560.289062 385.597656 569.957031 371.488281 578.695312 C 367.25 581.316406 361.675781 586.320312 357.394531 587.367188 C 352.203125 588.640625 347.34375 586.144531 342.9375 584.113281 L 342.9375 574.355469 C 346.804688 574.851562 350.570312 578.371094 354.503906 577.96875 C 357.285156 577.6875 364.847656 572.105469 367.511719 570.382812 C 379.589844 562.570312 393.203125 553.070312 404.375 546.167969 C 406.492188 525.394531 408.53125 504.546875 410.878906 484.007812 C 462.167969 483.800781 512.78125 484.261719 563.75 484.371094 C 566.835938 475.890625 568.523438 466.011719 570.617188 456.542969 C 561.746094 452.042969 552.898438 446.417969 540.621094 444.253906 C 528.828125 442.175781 514.40625 443.5625 505.925781 437.027344 C 505.789062 433.550781 505.089844 430.632812 505.203125 426.90625 C 528.683594 430.050781 551.378906 433.980469 574.59375 437.386719 C 579.289062 421.121094 582.382812 403.257812 586.878906 386.792969 C 577.023438 385.140625 569.21875 377.457031 560.5 374.144531 C 553.167969 371.355469 542.164062 372.308594 533.753906 370.167969 C 530.195312 369.261719 526.460938 368.265625 522.914062 366.917969 C 519.503906 365.621094 515.816406 364.820312 512.792969 363.300781 C 507.488281 360.636719 504.875 355.082031 504.84375 348.484375 C 533.960938 353.21875 562.351562 358.679688 591.214844 363.664062 C 591.773438 358.484375 591.375 350.949219 590.855469 343.425781 C 589.917969 329.902344 586.507812 313.964844 602.058594 318.128906 C 605.640625 332.253906 604.84375 350.757812 607.117188 366.195312 C 633.335938 373.101562 663.046875 376.519531 689.515625 383.179688 C 687.488281 401.121094 662.398438 389.988281 646.148438 391.851562 C 642.78125 392.238281 639.65625 393.34375 636.390625 393.660156 C 626.785156 394.589844 617.15625 391.117188 609.285156 390.40625 C 608.484375 399.398438 610.175781 409.03125 610.730469 417.871094 C 641.089844 417.628906 672.648438 415.460938 703.613281 414.621094 C 706.742188 406.59375 708.28125 397.882812 710.476562 389.324219 C 712.628906 380.933594 715.828125 372.535156 715.539062 363.300781 C 710.695312 362.292969 705.984375 362.921875 701.082031 361.855469 C 697.027344 360.972656 693.367188 358.714844 689.15625 358.242188 C 679.460938 357.152344 669.019531 360.714844 659.519531 360.773438 C 645.496094 360.855469 625.140625 356.691406 627.355469 340.894531 C 656.976562 340.039062 684.945312 337.527344 713.730469 335.835938 C 714.691406 330.828125 713.710938 323.554688 713.367188 316.320312 C 712.84375 305.195312 710.035156 293.316406 723.125 296.445312 M 734.332031 412.8125 C 740.136719 412.476562 746.496094 412.691406 751.3125 411.367188 C 744.601562 399.527344 738.644531 386.9375 731.078125 375.953125 C 732.355469 388.042969 732.445312 401.324219 734.332031 412.8125 M 581.820312 438.472656 C 586.507812 439.089844 590.472656 440.421875 595.914062 440.28125 C 598.664062 430.253906 589.042969 427.683594 590.492188 418.957031 C 591.324219 418.097656 594 419.089844 594.832031 418.234375 C 594.25 408.457031 594.136719 398.210938 592.664062 389.324219 C 589.03125 405.6875 585.199219 421.851562 581.820312 438.472656 M 711.199219 413.898438 C 713.488281 413.894531 715.542969 413.664062 717.34375 413.175781 C 717.257812 405.914062 717.621094 398.199219 715.898438 392.574219 C 714.363281 399.710938 712.347656 406.371094 711.199219 413.898438 M 656.992188 440.28125 C 652.425781 439.796875 648.078125 437.414062 643.621094 437.027344 C 633.597656 436.15625 623.273438 438.699219 612.539062 437.027344 C 611.636719 438.664062 612.394531 441.742188 612.539062 443.53125 C 639.488281 447.785156 666.089844 452.382812 693.492188 456.179688 C 694.566406 450.269531 696.753906 445.46875 697.46875 439.195312 C 683.136719 440.1875 670.214844 441.675781 656.992188 440.28125 M 704.695312 438.832031 C 703.921875 440.953125 703.578125 443.5 703.25 446.0625 C 709.058594 446.210938 713.675781 445.164062 718.789062 444.617188 C 719.007812 441.988281 718.511719 440.074219 718.429688 437.75 C 713.171875 437.433594 709.261719 438.464844 704.695312 438.832031 M 736.5 438.832031 C 735.023438 439.394531 736.03125 442.300781 736.136719 443.53125 C 740.683594 443.316406 747.074219 441.714844 750.953125 443.171875 C 752.402344 454.253906 745.320312 456.808594 737.582031 458.710938 C 737.621094 463.980469 741.816406 468.066406 744.449219 472.082031 C 747.246094 476.347656 749.953125 480.65625 753.121094 484.371094 L 791.792969 484.371094 C 783.695312 469.578125 775.972656 454.410156 766.855469 440.640625 C 755.96875 440.804688 746 440.050781 736.5 438.832031 M 577.484375 457.988281 C 574.894531 466.359375 572.761719 475.191406 570.976562 484.371094 L 597.359375 484.371094 C 598.929688 477.148438 597.46875 468.292969 597 460.878906 C 589.449219 460.960938 584.417969 458.519531 577.484375 457.988281 M 696.382812 471.71875 C 694.628906 475.410156 694.78125 479.820312 693.128906 484.371094 L 710.476562 484.371094 C 711.460938 477.28125 714.246094 470.066406 714.089844 463.046875 C 710.878906 465.035156 705.089844 464.644531 702.527344 462.324219 C 701.988281 466.3125 698.035156 468.246094 696.382812 471.71875 M 620.851562 484.371094 L 668.917969 484.371094 C 669.96875 488.015625 670.246094 492.4375 671.808594 495.574219 C 673.449219 492.152344 673.460938 487.105469 675.785156 484.371094 L 685.902344 484.371094 C 686.695312 480.703125 687.882812 477.433594 688.433594 473.527344 C 664.957031 470.015625 635.683594 472.308594 615.792969 465.214844 C 617.269531 471.808594 619.160156 477.992188 620.851562 484.371094 M 716.621094 484.371094 L 720.234375 484.371094 C 719.554688 480.953125 719.949219 476.464844 719.152344 473.164062 C 718.34375 476.933594 717.5 480.667969 716.621094 484.371094 M 739.027344 484.371094 L 740.472656 484.371094 C 739.472656 481.558594 738.390625 479.292969 739.027344 484.371094 M 675.0625 504.246094 C 673.835938 507.601562 672.722656 511.265625 670.722656 512.558594 C 667.089844 507.398438 666.394531 499.296875 663.496094 493.40625 L 623.378906 493.40625 C 628.109375 509.394531 632.984375 525.242188 637.476562 541.46875 C 648.652344 540.839844 661.09375 541.476562 671.808594 540.386719 C 675.945312 524.523438 680.421875 509.007812 684.09375 492.679688 C 677.152344 491.460938 676.753906 499.597656 675.0625 504.246094 M 691.324219 492.679688 C 687.117188 507.992188 683.476562 523.867188 679.757812 539.664062 C 685.480469 539 692.359375 539.492188 697.828125 538.578125 C 701.125 523.203125 705.464844 508.871094 707.949219 492.679688 Z M 715.175781 492.679688 C 711.128906 507.308594 708.148438 522.996094 704.695312 538.21875 C 710.613281 537.628906 717.011719 537.523438 722.765625 536.769531 C 722.242188 521.875 721.714844 506.980469 720.597656 492.679688 Z M 739.75 492.679688 C 741.246094 506.964844 742.1875 521.804688 743.726562 536.050781 C 750.933594 536.027344 757.898438 535.761719 763.964844 534.601562 C 757.316406 520.769531 751 506.605469 744.449219 492.679688 Z M 769.382812 534.601562 C 772.769531 534.617188 776.238281 534.710938 779.144531 534.242188 C 773.167969 523.003906 765.222656 512.820312 758.542969 502.800781 C 756.203125 499.292969 754.308594 495.335938 750.953125 492.679688 L 750.230469 492.679688 C 756.167969 507.101562 762.945312 520.6875 769.382812 534.601562 M 786.730469 534.242188 C 797.15625 533.34375 808.222656 533.085938 818.894531 532.433594 C 811.371094 519.117188 804.136719 505.511719 796.128906 492.679688 C 783.601562 492.921875 770.109375 492.199219 758.183594 493.042969 C 767.527344 506.949219 777.183594 520.539062 786.730469 534.242188 M 569.171875 493.40625 C 562.824219 518.015625 557.03125 543.179688 552.1875 569.296875 C 559.980469 570.902344 567.472656 572.800781 575.675781 573.996094 C 576.816406 570.675781 577.644531 567.046875 578.207031 563.152344 C 571.058594 559.460938 563.585938 556.089844 563.75 545.085938 C 568.9375 543.527344 577.070312 544.910156 582.90625 544 C 586.921875 527.179688 591.492188 510.90625 594.832031 493.40625 Z M 619.765625 542.195312 C 623.292969 541.867188 628.222656 542.9375 630.609375 541.46875 C 626.214844 525.382812 621.671875 509.449219 617.238281 493.40625 L 616.152344 493.40625 C 617.558594 509.464844 618.917969 525.574219 619.765625 542.195312 M 591.214844 543.636719 C 593.121094 543.855469 594.320312 543.371094 595.914062 543.277344 C 596.378906 534.824219 597.808594 525.417969 597.359375 517.257812 C 595.480469 526.21875 592.777344 534.355469 591.214844 543.636719 M 801.1875 555.925781 C 803.964844 558.445312 804.308594 563.601562 808.054688 564.597656 C 811.339844 565.472656 816.765625 563.648438 821.425781 563.152344 C 826.449219 562.621094 831.300781 562.496094 835.519531 562.070312 C 834.785156 558.707031 832.683594 556.71875 831.183594 554.117188 C 820.828125 552.515625 809.671875 552.949219 801.1875 555.925781 M 780.589844 558.816406 C 780.476562 560.800781 782.117188 563.984375 783.117188 566.042969 C 789.292969 566.316406 794.371094 565.492188 799.742188 564.960938 C 798.640625 561.847656 796.386719 559.882812 795.042969 557.011719 C 789.523438 556.910156 785.785156 558.59375 780.589844 558.816406 M 745.53125 565.683594 C 745.25 567.171875 746.085938 567.539062 745.894531 568.933594 C 757.21875 569.058594 766.410156 567.042969 777.335938 566.765625 C 776.519531 564.332031 775.980469 561.617188 774.082031 560.261719 C 764.621094 562.125 755.042969 563.871094 745.53125 565.683594 M 585.796875 564.597656 C 584.59375 567.972656 583.550781 571.511719 583.265625 575.800781 C 587.058594 575.984375 589.621094 577.398438 593.386719 577.609375 C 593.679688 573.929688 593.933594 570.207031 594.105469 566.40625 C 591.207031 565.933594 588.664062 565.101562 585.796875 564.597656 M 697.105469 569.296875 C 697.300781 570.695312 696.460938 571.0625 696.746094 572.550781 C 705.347656 572.722656 712.222656 571.164062 720.597656 571.105469 C 721.984375 569.839844 722.539062 567.746094 722.765625 565.324219 C 713.535156 565.972656 704.964844 567.277344 697.105469 569.296875 M 621.933594 567.492188 C 621.179688 570.796875 622.355469 574.589844 622.660156 577.96875 C 628.929688 578.21875 634.238281 577.503906 639.644531 576.886719 C 639.203125 573.109375 638.199219 569.898438 636.753906 567.128906 C 631.921875 567.355469 626.167969 566.664062 621.933594 567.492188 M 600.25 579.417969 C 601.289062 579.367188 603.070312 580.421875 603.867188 579.417969 C 602.480469 575.984375 602.402344 571.242188 600.972656 567.851562 C 600.351562 571.324219 600.097656 575.164062 600.25 579.417969 M 647.230469 576.164062 C 652.800781 576.429688 657.351562 575.679688 662.410156 575.441406 C 663.113281 574.09375 663.839844 572.773438 663.855469 570.742188 C 657.234375 570.621094 651.898438 569.210938 645.425781 568.933594 C 645.261719 572.113281 646.554688 573.828125 647.230469 576.164062 M 671.808594 570.742188 C 671.417969 572.039062 670.898438 573.207031 670.722656 574.71875 C 677.199219 574.449219 683.347656 573.847656 689.515625 573.273438 C 689.636719 572.070312 690.5625 571.667969 690.238281 570.019531 C 684.34375 569.085938 678.136719 570.917969 671.808594 570.742188 M 846.722656 582.667969 C 839.171875 584.753906 831.722656 586.941406 823.957031 588.8125 C 833.050781 603.933594 843.195312 618.003906 853.589844 631.820312 C 859.367188 629.527344 866.867188 628.953125 872.382812 626.398438 C 863.863281 611.789062 856.445312 596.078125 846.722656 582.667969 M 518.214844 596.039062 C 524.386719 597.457031 530.171875 599.261719 537.007812 600.015625 C 537.203125 597.199219 538.394531 595.382812 538.089844 592.066406 C 529.808594 590.46875 524.371094 586.03125 516.769531 583.753906 C 516.96875 588.132812 517.527344 592.152344 518.214844 596.039062 M 823.59375 600.738281 C 822.101562 598.476562 818.605469 590.988281 816.003906 590.257812 C 814.835938 589.929688 813.859375 590.480469 812.75 590.621094 C 807.785156 591.234375 801.851562 591.613281 795.40625 591.703125 C 801.84375 608.515625 809.945312 623.664062 816.726562 640.132812 C 826.886719 638.363281 836.433594 635.988281 845.277344 632.902344 C 839.171875 623.222656 830.644531 611.414062 823.59375 600.738281 M 788.179688 592.066406 C 773.257812 593.410156 762.304688 598.71875 748.0625 600.738281 C 748.582031 603.59375 748.597656 606.953125 749.148438 609.773438 C 758.71875 612.003906 768.230469 614.300781 778.417969 615.917969 C 787.222656 623.820312 766.527344 631.8125 758.542969 631.820312 C 761.78125 639.0625 765.625 645.703125 769.382812 652.417969 C 782.933594 648.5 798.003906 646.101562 810.585938 641.214844 C 802.777344 625.171875 796.523438 607.570312 788.179688 592.066406 M 544.957031 602.546875 C 552.429688 603.988281 559.792969 605.539062 567.003906 607.242188 C 567.832031 604.699219 568.75 602.246094 569.171875 599.292969 C 561.355469 597.59375 553.175781 596.257812 545.679688 594.234375 C 545.488281 597.050781 544.625 599.203125 544.957031 602.546875 M 716.980469 603.269531 C 719.601562 604.019531 722.140625 604.855469 725.65625 604.714844 C 725.910156 602.292969 725.285156 600.75 725.296875 598.570312 C 720.601562 598.214844 716.136719 598.089844 716.980469 603.269531 M 702.527344 600.378906 C 705.089844 600.703125 707.5 601.1875 709.753906 601.824219 C 710.242188 601.105469 710.445312 600.101562 710.839844 599.292969 C 707.765625 599.351562 704.351562 599.074219 702.527344 600.378906 M 576.761719 601.097656 C 575.796875 603.511719 575.703125 606.789062 574.953125 609.414062 C 580.671875 609.960938 584.902344 611.992188 590.492188 612.664062 C 590.699219 610.101562 591.019531 607.648438 590.855469 604.714844 C 586.074219 603.59375 582.183594 601.582031 576.761719 601.097656 M 598.445312 614.472656 C 600.359375 615.09375 603.246094 616.648438 605.671875 615.554688 C 604.835938 614.101562 605.546875 611.101562 605.3125 609.050781 C 603.121094 608.472656 600.886719 607.933594 598.445312 607.605469 Z M 625.1875 620.617188 C 632.898438 622.90625 641.609375 624.191406 649.402344 626.398438 C 650.410156 622.992188 652.117188 619.015625 650.125 615.554688 C 641.527344 615.238281 633.070312 614.78125 624.828125 614.109375 C 625.476562 615.75 625.082031 618.429688 625.1875 620.617188 M 662.410156 629.652344 C 667.289062 629.953125 670.882812 631.539062 675.785156 631.820312 C 676.394531 628.574219 676.933594 625.257812 677.589844 622.0625 C 671.492188 620.570312 664.847656 619.625 660.605469 616.277344 C 658.128906 620.566406 661.3125 625.664062 662.410156 629.652344 M 495.808594 678.078125 C 502.117188 678.875 507.335938 680.765625 514.238281 680.96875 C 512.359375 662.011719 511.992188 641.535156 509.179688 623.507812 C 505.210938 642.183594 499.070312 658.691406 495.808594 678.078125 M 684.816406 623.867188 C 683.367188 626.632812 683.027344 630.507812 682.289062 633.988281 C 687.585938 634.953125 692.796875 636.003906 697.828125 637.238281 C 698.78125 633.496094 700.4375 630.453125 701.082031 626.398438 C 695.5 625.941406 689.550781 623.976562 684.816406 623.867188 M 523.996094 654.585938 C 525.75 645.617188 528.457031 637.605469 529.78125 628.203125 C 527.066406 626.703125 523.667969 625.886719 520.746094 624.589844 C 521.300781 635.117188 521.980469 645.519531 523.996094 654.585938 M 708.671875 627.84375 C 707.421875 631.535156 706.003906 635.054688 705.054688 639.046875 C 707.082031 639.191406 708.332031 640.105469 710.476562 640.132812 C 711.902344 636.375 713.472656 632.765625 714.089844 628.203125 C 712.199219 628.171875 710.835938 627.605469 708.671875 627.84375 M 722.042969 629.289062 C 719.910156 633.476562 719.503906 638.050781 718.066406 642.300781 C 721.375 642.722656 724.355469 643.476562 727.464844 644.105469 C 726.707031 639.804688 727.496094 633.953125 726.742188 629.652344 C 725.074219 629.632812 723.207031 629.808594 722.042969 629.289062 M 537.371094 631.457031 L 537.371094 632.542969 C 534.476562 643.039062 531.671875 656.464844 529.054688 668.320312 C 527.765625 674.164062 524.996094 680.488281 528.335938 683.859375 C 534.707031 684.59375 540.476562 685.929688 546.765625 686.75 C 550.433594 670.542969 555.597656 655.828125 556.523438 636.878906 C 549.125 636.082031 544.503906 632.515625 537.371094 631.457031 M 757.097656 643.019531 C 756.484375 641.988281 756.226562 639.890625 755.292969 640.492188 C 757.597656 644.691406 757.773438 651.019531 760.710938 654.585938 C 761.734375 654.886719 761.648438 654.078125 762.519531 654.226562 C 762.320312 650.714844 758.917969 646.101562 757.097656 643.019531 M 566.28125 643.746094 C 562.613281 658.511719 559.234375 673.5625 555.800781 688.558594 C 557.734375 689.277344 560.304688 689.351562 563.027344 689.28125 C 567.933594 673.46875 574.476562 659.289062 579.289062 643.382812 C 574.816406 643.367188 570.996094 644 566.28125 643.746094 M 569.894531 690.726562 C 574.644531 691.636719 579.339844 692.601562 584.710938 692.894531 C 585.019531 676.492188 588.550781 659.328125 587.242188 643.746094 L 586.15625 643.746094 C 579.925781 658.59375 575.527344 675.28125 569.894531 690.726562 M 596.636719 644.46875 C 596.140625 644.519531 596.34375 645.050781 596.277344 645.550781 C 594.394531 659.613281 594.019531 680.410156 594.46875 694.703125 C 595.152344 695.101562 596.175781 695.164062 597 695.425781 C 599.460938 692.113281 601.054688 687.808594 603.140625 683.5 C 605.03125 679.601562 608.402344 674.953125 608.925781 670.847656 C 609.425781 666.9375 608.070312 662.480469 607.839844 658.199219 C 607.617188 653.996094 607.683594 649.691406 607.117188 645.191406 C 603.242188 645.332031 600.222656 644.617188 596.636719 644.46875 M 866.238281 652.054688 C 880.996094 673.503906 894.953125 698.058594 913.945312 714.941406 C 914.996094 715.875 915.824219 717.921875 917.558594 717.46875 C 909.59375 690.257812 896.523438 668.152344 883.585938 645.914062 C 875.265625 645.425781 870.710938 648.699219 866.238281 652.054688 M 637.113281 675.1875 C 638.964844 668.847656 640.464844 662.15625 641.8125 655.308594 C 636.902344 654.4375 632.695312 652.859375 628.078125 651.695312 C 628.335938 662.28125 633.3125 668.144531 637.113281 675.1875 M 828.292969 664.707031 C 840.695312 692.898438 854.828125 725.554688 873.105469 749.632812 C 875.644531 752.980469 878.972656 758.6875 882.140625 759.390625 C 885.574219 760.15625 888.863281 758.355469 891.898438 756.5 C 897.890625 752.835938 904.101562 750.933594 906.714844 744.574219 C 896.695312 708.578125 878.171875 681.082031 859.011719 654.226562 L 858.289062 654.226562 C 848.507812 657.9375 835.625 658.546875 828.292969 664.707031 M 650.125 657.839844 C 648.113281 666.308594 645.789062 674.464844 644.339844 683.5 C 651.882812 682.484375 658.003906 680.054688 664.941406 678.4375 C 667.570312 671.457031 663.8125 665.386719 662.410156 659.285156 C 658.148438 658.972656 654.460938 658.082031 650.125 657.839844 M 675.421875 662.539062 C 674.144531 666.933594 672.707031 672.136719 675.421875 675.910156 C 678.679688 675.191406 682.070312 674.605469 685.179688 673.742188 C 686.886719 671.835938 687.078125 668.410156 688.070312 665.789062 C 683.960938 664.597656 680.09375 663.167969 675.421875 662.539062 M 693.851562 671.210938 C 696.382812 670.367188 699.097656 669.707031 701.082031 668.320312 C 698.367188 667 692.890625 666.125 693.851562 671.210938 M 834.074219 765.898438 C 837.007812 770.175781 842.179688 779.402344 847.445312 780.351562 C 853 781.355469 858.863281 777.21875 859.375 772.402344 C 859.785156 768.496094 857.355469 763.019531 856.121094 757.945312 C 854.917969 753.007812 853.679688 747.929688 852.507812 743.851562 C 844.386719 715.617188 832.925781 690.820312 821.425781 667.597656 C 810.351562 673.507812 798.140625 678.28125 784.5625 681.691406 C 793.84375 698.3125 803.363281 714.695312 812.390625 731.5625 C 819.632812 732.394531 825.851562 734.246094 831.546875 736.625 C 830.28125 742.464844 827.921875 747.21875 822.871094 749.273438 C 826.421875 754.875 829.941406 759.867188 834.074219 765.898438 M 630.609375 686.75 C 631.949219 687.007812 632.160156 686.132812 633.5 686.390625 C 633.058594 683.21875 631.589844 681.074219 630.246094 678.800781 C 630.085938 681.734375 630.402344 684.183594 630.609375 686.75 M 783.117188 693.257812 C 781.484375 690.136719 779.359375 682.703125 776.253906 682.050781 C 773.660156 681.511719 770.550781 683.820312 769.023438 685.667969 C 772.859375 699.296875 777.097656 712.53125 780.949219 726.144531 C 787.976562 726.589844 794.644531 729.308594 801.550781 728.671875 C 796.21875 718.597656 789.148438 704.773438 783.117188 693.257812 M 761.796875 687.835938 C 760.875 688.242188 760.035156 688.722656 759.265625 689.28125 C 761.671875 700.605469 763.621094 712.390625 766.132812 723.613281 C 768.167969 723.867188 769.746094 724.578125 772.277344 724.335938 C 768.929688 712.023438 765.710938 699.582031 761.796875 687.835938 M 715.175781 696.871094 C 713.984375 702.90625 712.3125 708.464844 710.839844 714.21875 C 713.109375 714.71875 715.207031 715.390625 718.066406 715.300781 C 719.328125 708.371094 721.351562 702.203125 721.679688 694.339844 C 718.667969 694.335938 717.117188 695.796875 715.175781 696.871094 M 725.65625 716.75 C 726.988281 717.222656 728.945312 717.074219 730.355469 717.46875 C 730.347656 709.886719 730.476562 702.167969 729.269531 695.785156 C 728.179688 702.890625 726.808594 709.707031 725.65625 716.75 M 699.273438 701.207031 C 698.535156 704.925781 696.90625 707.75 696.382812 711.6875 C 698.222656 712.496094 700.53125 712.84375 703.25 712.769531 C 704.171875 708.511719 706.304688 703.539062 706.140625 699.402344 C 704.234375 700.386719 701.308594 700.351562 699.273438 701.207031 M 683.734375 705.183594 C 684.042969 707.042969 684.585938 708.664062 685.179688 710.242188 L 687.347656 710.242188 C 688.097656 708.34375 688.730469 706.324219 689.15625 704.097656 C 686.789062 703.898438 685.65625 704.9375 683.734375 705.183594 M 503.757812 719.277344 C 505.996094 716.9375 506.539062 712.898438 507.734375 709.519531 C 505.304688 708.578125 502.34375 708.164062 499.421875 707.714844 C 500.417969 712.019531 502.554688 715.179688 503.757812 719.277344 M 458.222656 816.851562 C 461.585938 817.402344 466.285156 816.273438 470.511719 816.492188 C 477.527344 795.164062 486.777344 770 494.722656 748.1875 C 495.933594 744.867188 497.988281 740.347656 497.976562 738.070312 C 497.960938 734.253906 494.683594 727.835938 492.917969 723.253906 C 490.855469 717.902344 488.28125 712.171875 486.773438 708.796875 C 477.046875 744.605469 467.789062 780.882812 458.222656 816.851562 M 531.949219 744.9375 C 532.375 738.589844 537.023438 732.167969 536.644531 726.144531 C 536.371094 721.726562 532.824219 718.589844 532.308594 714.21875 C 530.820312 714.5 530.453125 713.664062 529.054688 713.855469 C 529.746094 724.492188 530.621094 734.9375 531.949219 744.9375 M 508.097656 725.058594 C 508.433594 722.023438 510.195312 718.492188 509.542969 715.664062 C 509.0625 718.5625 507.128906 721.917969 508.097656 725.058594 M 548.210938 718.191406 C 547.484375 723.714844 544.078125 729.234375 545.320312 734.457031 C 548.332031 729.996094 550.285156 724.480469 551.464844 718.191406 Z M 560.136719 720 C 555.960938 728.589844 553.277344 738.679688 550.015625 748.1875 C 553.265625 757.105469 556.332031 766.207031 559.414062 775.292969 C 566.089844 763.390625 571.921875 751.085938 577.484375 738.792969 C 579.410156 734.535156 582.269531 730.117188 581.820312 724.699219 C 574.769531 722.953125 567.503906 721.429688 560.136719 720 M 513.878906 735.902344 C 514.5 738.886719 517.824219 740.28125 518.9375 743.128906 C 518.152344 735.726562 518.347656 727.335938 516.769531 720.722656 C 516.949219 725.945312 512.859375 731.003906 513.878906 735.902344 M 591.9375 727.589844 C 591.519531 727.652344 591.546875 728.160156 591.578125 728.671875 C 589.328125 762.320312 587.582031 796.476562 585.433594 830.226562 C 587.511719 830.132812 590.042969 830.496094 591.578125 829.863281 C 595.257812 796.5625 598.871094 763.191406 602.058594 729.394531 C 598.714844 728.761719 595.425781 728.078125 591.9375 727.589844 M 608.5625 732.285156 C 605.558594 763.496094 602.292969 796.367188 600.613281 827.695312 C 602.757812 818.945312 605.015625 809.855469 607.480469 800.589844 C 609.832031 791.75 613.570312 782.519531 614.34375 773.488281 C 615.515625 759.902344 612.152344 745.925781 612.175781 731.5625 C 611.195312 731.660156 608.296875 730.113281 608.5625 732.285156 M 648.320312 748.910156 C 649.0625 745.5625 650.296875 742.699219 650.484375 738.792969 C 648.101562 738.761719 645.078125 737.460938 643.257812 738.070312 C 645.089844 741.539062 646.121094 745.804688 648.320312 748.910156 M 638.921875 790.472656 C 641.042969 781.269531 643.316406 772.21875 645.066406 762.644531 C 641.613281 754.773438 638.539062 746.519531 634.945312 738.792969 C 636.023438 756.269531 635.953125 774.890625 638.921875 790.472656 M 654.460938 763.367188 C 656.730469 757.445312 658.441406 750.964844 660.964844 745.296875 C 660.167969 743.324219 659.167969 741.554688 657.714844 740.238281 C 657.273438 748 651.230469 756.605469 654.460938 763.367188 M 673.617188 751.800781 C 674.492188 748.34375 676.269531 745.785156 676.507812 741.683594 C 665.308594 737.804688 670.457031 748.894531 673.617188 751.800781 M 679.398438 765.171875 C 681.4375 768.796875 682.824219 773.070312 685.542969 776.015625 C 685.890625 770.433594 689.683594 765.160156 689.878906 759.390625 C 690.058594 754.109375 687.261719 749.414062 685.902344 744.574219 C 683.777344 751.484375 681.542969 758.285156 679.398438 765.171875 M 476.65625 816.128906 C 480.113281 816.335938 482.910156 815.882812 486.050781 815.769531 C 489.8125 800.464844 494.117188 782.164062 497.976562 765.898438 C 499.640625 758.882812 503.933594 749.257812 499.785156 744.9375 C 492.320312 768.914062 483.753906 791.789062 476.65625 816.128906 M 721.679688 745.296875 C 721.160156 745.5 720.796875 745.863281 720.597656 746.382812 C 718.261719 762.839844 714.332031 777.703125 712.644531 794.808594 C 719.917969 794.007812 726.667969 792.691406 733.605469 791.554688 C 732.941406 776.617188 732.421875 761.742188 731.800781 746.019531 C 728.503906 745.703125 725.5625 745.03125 721.679688 745.296875 M 702.527344 745.660156 C 701.808594 749.679688 698.894531 753.316406 698.914062 757.585938 C 698.925781 761.019531 701.152344 765.4375 702.164062 769.152344 C 703.296875 773.285156 703.808594 777.632812 706.140625 780.351562 C 708.070312 769.238281 710.894531 757.203125 711.921875 746.382812 C 708.8125 746.121094 705.425781 746.132812 702.527344 745.660156 M 759.628906 747.101562 C 759.171875 747.253906 758.886719 747.570312 758.90625 748.1875 C 760.523438 766.445312 761.558594 785.289062 762.878906 803.84375 C 765.878906 803.832031 768.464844 803.40625 770.832031 802.757812 C 768.734375 788.722656 766.21875 774.285156 763.964844 760.476562 C 763.230469 755.992188 762.902344 751.042969 760.710938 747.101562 Z M 520.023438 759.390625 C 520.402344 753.832031 517.113281 750.015625 514.960938 748.1875 C 517.035156 751.539062 518.058594 755.933594 520.023438 759.390625 M 797.933594 781.4375 C 802.707031 782.527344 807.226562 780.015625 810.945312 781.4375 C 816.738281 783.648438 816.929688 793.578125 815.644531 799.867188 C 819.847656 799.925781 824.589844 797.191406 825.402344 794.085938 C 826.296875 790.664062 824.050781 785.738281 822.871094 781.796875 C 819.4375 770.328125 815.382812 757.171875 810.585938 749.273438 C 802.851562 749.171875 796.039062 748.15625 787.816406 748.550781 C 790.769531 759.933594 793.921875 771.117188 797.933594 781.4375 M 567.726562 778.183594 C 566.53125 780.730469 563.84375 784.730469 563.75 786.859375 C 563.671875 788.617188 565.484375 792.464844 566.28125 794.808594 C 568.980469 802.75 571.695312 810.671875 574.953125 817.578125 C 576.207031 796.0625 579.394531 774.554688 579.289062 752.886719 C 575.894531 761.355469 571.65625 769.804688 567.726562 778.183594 M 868.410156 797.339844 C 867.667969 798.015625 865.792969 798.820312 866.238281 800.230469 C 870.839844 800.132812 875.339844 799.933594 879.609375 799.507812 C 892.472656 784.175781 907.1875 768.78125 919.003906 753.609375 C 902.539062 767.878906 884.285156 782.765625 868.410156 797.339844 M 663.136719 783.242188 C 665.8125 774.445312 673.269531 762.835938 665.664062 755.054688 C 662.734375 763.804688 655.65625 775.203125 663.136719 783.242188 M 539.898438 777.460938 C 543.6875 783.070312 547.0625 789.089844 551.101562 794.449219 C 552.886719 791.050781 554.496094 787.480469 556.160156 783.96875 C 552.574219 775.507812 550.4375 765.59375 546.40625 757.585938 C 544.292969 764.269531 541.507812 770.277344 539.898438 777.460938 M 495.445312 815.046875 C 502.410156 815.265625 507.46875 813.578125 514.238281 813.601562 C 516.480469 808.25 517.164062 801.347656 519.300781 795.890625 C 515.121094 785.496094 511.71875 774.320312 507.011719 764.453125 C 503.167969 781.328125 498.777344 797.65625 495.445312 815.046875 M 690.601562 788.664062 C 692.25 791.355469 693.691406 794.246094 694.9375 797.339844 C 697.265625 797.617188 698.128906 796.433594 700.359375 796.617188 C 698.40625 789.410156 696.980469 781.683594 694.214844 775.292969 C 692.800781 779.539062 691.753906 784.160156 690.601562 788.664062 M 670.722656 800.589844 C 673.710938 800.925781 675.339844 799.90625 677.953125 799.867188 C 678.730469 795.804688 681.84375 792.214844 681.566406 788.304688 C 681.246094 783.800781 676.742188 780.1875 675.421875 776.378906 C 674.550781 784.636719 666.570312 793.039062 670.722656 800.589844 M 536.644531 803.480469 C 537.230469 806.320312 539.316406 812.460938 541.34375 812.515625 C 545.09375 812.621094 546.359375 801.761719 548.210938 800.230469 C 544.5625 794.71875 541.402344 788.726562 537.007812 783.96875 C 535.46875 788.921875 535.15625 796.230469 536.644531 803.480469 M 649.039062 803.84375 C 652.082031 803.992188 654.730469 803.753906 656.628906 802.757812 C 660.113281 797.433594 658.109375 790.644531 654.824219 786.496094 C 652.546875 791.929688 650.785156 797.878906 649.039062 803.84375 M 569.894531 824.082031 C 566.410156 814.796875 563.9375 804.5 559.777344 795.890625 C 558.742188 798.835938 557.261719 801.328125 556.160156 804.203125 C 561.089844 810.238281 565.21875 818.996094 569.894531 824.082031 M 608.203125 828.78125 C 611.703125 829.015625 614.421875 827.832031 617.238281 828.417969 C 617.085938 817.726562 616.628906 807.34375 615.429688 797.699219 C 613.28125 808.320312 610.035156 817.84375 608.203125 828.78125 M 713.007812 808.179688 C 713.28125 810.074219 713.621094 811.90625 714.453125 813.238281 C 720.878906 811.59375 728.183594 810.828125 734.332031 808.902344 C 733.984375 807.804688 735.101562 805.238281 733.605469 805.289062 C 726.613281 806.125 719.71875 807.0625 713.007812 808.179688 M 545.679688 826.972656 C 546.773438 829.132812 547.839844 831.320312 548.574219 833.839844 C 554.875 833.273438 561.597656 833.132812 567.726562 832.394531 C 563.285156 824.550781 558.636719 816.910156 553.632812 809.625 C 551.066406 815.496094 548.152344 821.007812 545.679688 826.972656 M 684.09375 812.515625 C 683.351562 814.429688 681.789062 817.429688 682.652344 819.746094 C 686.605469 818.640625 691.808594 818.785156 694.9375 816.851562 C 694.09375 815.046875 693.195312 813.296875 692.40625 811.433594 C 689.140625 811.296875 686.855469 812.144531 684.09375 812.515625 M 661.328125 822.636719 C 664.328125 822.503906 666.414062 821.457031 669.277344 821.191406 C 668.792969 818.90625 667.730469 817.195312 667.109375 815.046875 C 661.96875 814.363281 661.761719 818.613281 661.328125 822.636719 M 643.980469 818.300781 C 643.007812 820.457031 642.585938 823.167969 641.8125 825.527344 C 644.609375 825.433594 646.710938 824.640625 649.761719 824.804688 C 650.800781 822.46875 651.761719 820.058594 652.292969 817.214844 C 649.335938 817.390625 646.722656 817.910156 643.980469 818.300781 M 454.96875 828.78125 C 453.863281 833.695312 452.078125 837.933594 451.355469 843.234375 C 454.453125 843.082031 457.488281 842.863281 460.390625 842.511719 C 462.71875 838.457031 464.042969 833.394531 465.8125 828.78125 C 462.691406 827.882812 458.253906 828.648438 454.96875 828.78125 M 472.679688 828.417969 C 471.003906 832.40625 469.242188 836.304688 468.34375 841.066406 C 472.484375 840.75 476.835938 840.644531 479.90625 839.261719 C 478.75 834.390625 477.707031 829.414062 472.679688 828.417969 "/>
</svg>
