<?xml version="1.0" encoding="UTF-8"?>
<svg xmlns="http://www.w3.org/2000/svg" viewBox="0 19.694 83.109 83.109">
  <!-- Green circle -->
  <path d="M41.554292,102.803061c22.949504,0,41.554289-18.604606,41.554289-41.554291s-18.604785-41.554291-41.554289-41.554291S0,38.299085,0,61.24877s18.604788,41.554291,41.554292,41.554291" fill="#bcd631"/>
  <!-- White e letterform -->
  <path d="M55.557498,48.302853c-1.510786-1.909173-3.537235-3.470837-6.104361-4.670322-2.558501-1.189137-5.23945-1.785001-8.057514-1.785863-4.653934,0-8.615431,1.491816-11.939672,4.468539-2.154937,1.923837-3.885612,4.763454-5.143736,8.593017h34.484152c-.808852-2.745627-1.8971-4.939366-3.238869-6.60537M62.757864,66.839273c2.227371,0,4.03307,1.805698,4.03307,4.029619,0,.889915-.420811,1.691872-.773503,2.378276-3.224211,6.063832-7.67119,10.617739-14.148073,13.140024-3.03019,1.147747-6.437215,1.712566-10.19779,1.712566-8.356739,0-14.997461-2.745625-19.794544-8.307586-4.722059-5.511948-7.104648-11.765487-7.104648-18.727852,0-6.538968,2.008341-12.384631,6.021575-17.502495,5.109245-6.533797,11.976754-9.806305,20.509409-9.808883,8.774958,0,15.840804,3.347521,21.104405,10.033082,3.758851,4.748796,5.643017,10.64792,5.705103,17.633571.002586.526015-.452719.98908-.980458.98908H23.364526c.297498,5.128212,2.050594,9.314776,5.229104,12.627807,3.382879,3.500153,7.535811,5.240315,12.526915,5.240315,2.416217,0,4.760004-.424262,7.033941-1.266747,5.572306-2.045421,8.098041-5.216172,11.094599-10.22366.736424-1.126189,2.021278-1.947117,3.508778-1.947117" fill="#fff"/>
</svg>
