<?xml version="1.0" encoding="UTF-8"?><svg id="a" xmlns="http://www.w3.org/2000/svg" width="189.82388mm" height="46.056184mm" viewBox="0 0 538.083448 130.552966"><path d="M62.621827,114.863369c26.613692,0,48.188974-21.575075,48.188974-48.188976s-21.575282-48.188976-48.188974-48.188976S14.432848,40.06049,14.432848,66.674393s21.575286,48.188976,48.188978,48.188976" fill="#c2cb20"/><path d="M78.860827,51.66149c-1.752003-2.213997-4.102001-4.025002-7.079002-5.416-2.966999-1.378998-6.075996-2.07-9.344002-2.070999-5.396996,0-9.990997,1.730003-13.845997,5.181999-2.499001,2.231003-4.506001,5.524002-5.965,9.965004h39.989998c-.937996-3.184002-2.199997-5.728001-3.755997-7.660004M87.210825,73.157492c2.583,0,4.677002,2.094002,4.677002,4.673,0,1.032001-.487999,1.962002-.897003,2.757999-3.738998,7.032001-8.895996,12.313-16.406998,15.238001-3.514,1.330999-7.465,1.986-11.826,1.986-9.691002,0-17.392002-3.184-22.955002-9.634001-5.475998-6.392002-8.238998-13.644001-8.238998-21.717999,0-7.583,2.328999-14.362,6.982998-20.296997,5.925003-7.577003,13.889-11.372009,23.784004-11.375,10.175995,0,18.369995,3.881996,24.473999,11.634995,4.359001,5.507004,6.543999,12.348,6.615997,20.449001.002998.610001-.525002,1.146999-1.137001,1.146999h-50.755997c.344997,5.946999,2.377998,10.802002,6.063999,14.644001,3.923,4.058998,8.739002,6.077,14.527,6.077,2.801998,0,5.52-.492001,8.157001-1.469,6.461998-2.372,9.390999-6.049002,12.865997-11.856001.854004-1.306,2.344002-2.257999,4.069-2.257999" fill="#fff"/><path d="M189.762614,51.108893c-4.213989,4.350998-6.315994,9.588001-6.315994,15.778999,0,7.695999,3.884003,15.194,10.634003,19.084999,3.253006,1.850002,6.826996,2.77,10.746002,2.77,3.916992,0,7.490005-.919998,10.744995-2.77,6.75-3.894997,10.633011-11.383999,10.633011-19.084999,0-6.185997-2.118011-11.425999-6.37001-15.777-4.218002-4.355995-9.207001-6.504997-15.007996-6.504997-5.843002-.000999-10.845001,2.149002-15.064011,6.502998M227.759623,45.094893c5.501007,6.089996,8.261002,13.32,8.261002,21.635002,0,8.364998-2.927994,15.702999-8.75,21.962997-5.824997,6.269001-13.337997,9.387001-22.444,9.390999-9.141998,0-16.690994-3.122997-22.555008-9.390999-5.781998-6.260998-8.694-13.598999-8.694-21.965,0-8.278999,2.757004-15.492001,8.257004-21.577999,6.064011-6.723999,13.755005-10.094002,22.990005-10.094002,9.199997,0,16.873001,3.353004,22.934998,10.039001" fill="#808285"/><path d="M293.880442,90.882593v2.209c0,2.704-2.108002,4.992001-4.815002,4.992001-2.709991,0-4.817993-2.278999-4.817993-4.989l-.024994-2.207001v-23.032999c0-6.679001-.294006-10.988998-.817017-13.062-.842987-3.640999-2.402008-6.265999-4.593994-7.978996-2.154999-1.719002-5.014008-2.643005-8.666992-2.676003h-5.078003c-3.740005,0-6.660004.928001-8.854004,2.676003-2.188004,1.712997-3.748001,4.339996-4.589996,7.978996-.525009,2.073002-.817001,6.385002-.817001,13.062v23.032999l-.026001,2.207001c0,2.710001-2.104996,4.989-4.817001,4.989-2.709,0-4.815002-2.288-4.815002-4.992001v-27.414997c0-7.897003.794006-13.880001,2.480011-17.814003,1.68399-3.923996,4.306-7.055,7.858994-9.371994,3.580994-2.361008,9.132004-3.479004,13.576996-3.479004h4.905991c4.591003.030998,10.039001,1.149002,13.572021,3.479004,3.552979,2.316994,6.173004,5.447998,7.854004,9.371994,1.690979,3.934002,2.482971,9.916,2.482971,17.814003v25.205997h.002014Z" fill="#808285"/><path d="M406.561137,51.932394c-1.751984-2.213997-4.10199-4.025002-7.078979-5.416-2.96701-1.379005-6.076019-2.07-9.344025-2.070999-5.397003,0-9.990997,1.729996-13.846985,5.181999-2.498016,2.230999-4.505005,5.523998-5.96402,9.964996h39.990021c-.938019-3.183998-2.200012-5.727997-3.756012-7.659996M414.911143,73.428393c2.583008,0,4.677002,2.094002,4.677002,4.673,0,1.031998-.417999,1.861-.897003,2.757999-3.739014,7.032001-8.895996,12.313-16.407013,15.238001-3.513977,1.330999-7.464996,1.986-11.825989,1.986-9.69101,0-17.391998-3.184-22.954987-9.634001-5.476013-6.391998-8.239014-13.644001-8.239014-21.717999,0-7.583,2.32901-14.362003,6.983002-20.297001,5.925018-7.577003,13.889008-11.372002,23.783997-11.375,10.175995,0,18.369995,3.881996,24.473999,11.635002,4.359009,5.506996,6.544006,12.348,6.615997,20.448997.003021.610001-.524994,1.146999-1.136993,1.146999h-50.756012c.345001,5.947002,2.378021,10.802002,6.064026,14.644001,3.922974,4.058998,8.738983,6.077,14.526978,6.077,2.802002,0,5.52002-.492001,8.157013-1.469,6.462006-2.372,9.390991-6.049002,12.865997-11.856001.854004-1.306,2.343994-2.257999,4.069-2.257999" fill="#808285"/><path d="M354.002024,90.882593v2.209c0,2.704-2.108002,4.992001-4.815002,4.992001-2.709991,0-4.817993-2.278999-4.817993-4.989l-.024994-2.207001v-23.032999c0-6.679001-.294006-10.988998-.817017-13.062-.842987-3.640999-2.402008-6.265999-4.593994-7.978996-2.154999-1.719002-5.014008-2.643005-8.666992-2.676003h-5.078003c-3.73999,0-6.660004.928001-8.854004,2.676003-2.187988,1.712997-3.748993,4.339996-4.589996,7.978996-.524994,2.073002-.817017,6.385002-.817017,13.062v23.032999l-.026001,2.207001c0,2.710001-2.10498,4.989-4.816986,4.989-2.708984,0-4.815002-2.288-4.815002-4.992001v-27.414997c0-7.897003.794006-13.880001,2.480011-17.814003,1.68399-3.923996,4.306-7.055,7.858978-9.371994,3.581024-2.361008,9.132019-3.479004,13.577026-3.479004h4.905975c4.591003.030998,10.039001,1.149002,13.572021,3.479004,3.552979,2.316994,6.173981,5.447998,7.854004,9.371994,1.690979,3.934002,2.482971,9.916,2.482971,17.814003v25.205997h.002014Z" fill="#808285"/><path d="M170.705622,46.516791c0-.985001-.292999-1.889999-.792999-2.653-.214005-.327003-.75-.927002-.759003-.934998-5.694-5.246002-12.643997-7.875-20.791992-7.875-9.234009,0-16.92601,3.369995-22.990005,10.093994-5.499001,6.086006-8.257004,13.299004-8.257004,21.578003,0,8.364998,2.912003,15.703999,8.695007,21.965,5.862991,6.268002,13.411995,9.389999,22.554001,9.389999,7.436996-.001999,13.797989-2.108997,19.057999-6.286999.022995-.02.046997-.041.069992-.062.277008-.249001,1.178009-1.07,1.606003-1.535999.624008-.681,1.089005-1.282001,1.253006-1.527.481995-.723999.763992-1.591999.763992-2.527,0-2.527-2.048004-4.575001-4.57399-4.575001-.808014,0-1.562012.214001-2.216003.584999-.52301.296001-2.242996,1.724003-2.34201,1.808002-.888992.744999-1.847992,1.418999-2.872986,2.010998-3.255005,1.850002-6.82901,2.769001-10.746002,2.769001-3.917999,0-7.492004-.918999-10.74501-2.769001-6.75-3.890999-10.634995-11.388996-10.634995-19.084999,0-6.190998,2.102997-11.427998,6.316002-15.778996,4.219002-4.354004,9.221001-6.505005,15.064003-6.503006,5.36499,0,10.034988,1.838005,14.043991,5.559006.005997.005997.246002.174995.355011.259995.831985.645004,1.872986,1.026001,3.010986,1.026001,2.724014,0,4.932007-2.208,4.932007-4.931999" fill="#808285"/><path d="M518.238535,89.804892c0-2.393-2.010986-4.333-4.492004-4.333-1.363983,0-2.563995.67-3.322998,1.407-.832001.853001-2.118011,1.448-3.541992,1.448-2.792999,0-5.875-2.289999-5.875-5.114998l.084991.387997c-.100006-.559998-.149994-1.175999-.149994-1.847v-37.112999h9.390991c1.535004,0,2.80899-.486,3.821014-1.455994.802002-.771004,1.28299-1.722,1.446991-2.850006.027008-.182999.037994-.494003.016998-.677002-.13501-1.214996-.618988-2.25-1.463989-3.097-1.012024-1.009995-2.286011-1.516998-3.821014-1.516998h-9.390991v-10.191002c0-.130997-.026001-.25-.03299-.377998.010986-.138.040985-.269997.040985-.410995,0-2.755005-2.233002-4.989006-4.988983-4.989006-2.755005,0-4.989014,2.234001-4.989014,4.989006,0,.042999.011993.081993.013.124001-.02301.223-.05899.438995-.05899.670998v10.192001h-4.910004c-1.537018,0-2.811005.485001-3.821014,1.455994-.891998.855003-1.378998,1.938004-1.483002,3.234009-.009003.116989-.005005.125992.006012.233994.126984,1.242004.615997,2.296005,1.47699,3.154999,1.01001,1.013,2.283997,1.516998,3.821014,1.516998h4.910004v37.598003c0,.164001.000977.326.013977.556999.012024,8.468002,6.130005,15.269001,14.527008,15.269001,4.519989,0,8.580017-1.973,11.356018-5.101999.879974-.934999,1.415985-1.914,1.415985-3.163" fill="#808285"/><path d="M478.770426,46.516791c0-.985001-.292999-1.889999-.792999-2.653-.213989-.327003-.75-.927002-.759003-.934998-5.694-5.246002-12.644012-7.875-20.791992-7.875-9.234009,0-16.925995,3.369995-22.989014,10.093994-5.5,6.086006-8.257996,13.299004-8.257996,21.578003,0,8.364998,2.911987,15.703999,8.695007,21.965,5.863007,6.268002,13.411987,9.389999,22.553986,9.389999,7.437012-.001999,13.798004-2.108997,19.058014-6.286999.02301-.02.046997-.041.070007-.062.276978-.249001,1.177979-1.07,1.605988-1.535999.623993-.681,1.088989-1.282001,1.252991-1.527.482025-.723999.764008-1.591999.764008-2.527,0-2.527-2.048004-4.575001-4.574005-4.575001-.807983,0-1.561981.214001-2.216003.584999-.52298.296001-2.242981,1.724003-2.34198,1.808002-.889008.744999-1.848022,1.418999-2.873016,2.010998-3.255005,1.850002-6.828979,2.769001-10.746002,2.769001-3.917999,0-7.491974-.918999-10.744995-2.769001-6.75-3.890999-10.634003-11.388996-10.634003-19.084999,0-6.190998,2.10202-11.427998,6.31601-15.778996,4.217987-4.354004,9.221008-6.505005,15.062988-6.503006,5.365021,0,10.035004,1.838005,14.044006,5.559006.006012.005997.246002.174995.355011.259995.832001.645004,1.872986,1.026001,3.010986,1.026001,2.723999,0,4.932007-2.208,4.932007-4.931999" fill="#808285"/></svg>